<ttFont>
          <CharString index="0">
            rmoveto
            -21 vlineto
            -316 184 -234 334 332 184 234 316 vhcurveto
            21 vlineto
            316 -184 235 -334 -332 -184 -235 -316 vhcurveto
            312 -21 rmoveto
            21 vlineto
            162 52 137 152 155 51 -137 -162 vhcurveto
            -21 vlineto
            -167 -52 -131 -152 -155 -51 131 167 vhcurveto
            endchar
          </CharString>
          <CharString index="1">
            rmoveto
            448 vlineto
            256 -188 128 -253 -285 -182 -153 -197 vhcurveto
            311 hlineto
            79 52 43 87 102 43 -60 -94 vhcurveto
            -59 -117 vlineto
            -338 -165 -132 -224 hvcurveto
            hintmask 01011111
            -191 163 -134 204 130 83 51 65 55 vhcurveto
            hintmask 00111111
            7 -37 10 -33 12 -26 rrcurveto
            314 17 hlineto
            -29 54 -16 64 135 vvcurveto
            hintmask 10011111
            -495 -56 rmoveto
            -76 -50 45 65 86 55 75 141 hvcurveto
            112 -178 hlineto
            -47 -27 -65 -46 -90 hhcurveto
            endchar
          </CharString>
          <CharString index="2">
            rmoveto
            hintmask 11101100
            69 35 41 58 75 vvcurveto
            149 -122 77 -173 -170 -124 -77 -149 -75 42 -58 69 -35 vhcurveto
            hintmask 11110010
            -79 -37 -50 -63 -88 vvcurveto
            -155 134 -75 179 181 131 75 155 vhcurveto
            hintmask 11100010
            87 -49 64 -79 37 vhcurveto
            hintmask 11101100
            -185 221 rmoveto
            55 25 -23 -44 -43 -24 -29 -55 -53 -27 29 43 43 27 24 52 hvcurveto
            hintmask 11110010
            1 -466 rmoveto
            -57 -41 30 49 51 41 24 56 58 41 -24 -51 -49 -39 -30 -59 hvcurveto
            endchar
          </CharString>
          <CharString index="3">
            422 349 192 396 hvcurveto
            650 -315 -613 vlineto
            -260 -195 -112 -275 -112 -141 32 48 -111 vhcurveto
            217 91 rmoveto
            264 hlineto
            54 65 34 130 135 vvcurveto
            484 -315 -553 vlineto
            -108 -14 -103 -23 -50 vhcurveto
            return
          </CharString>
          <CharString index="4">
            rmoveto
            -81 -63 -57 -74 -74 63 -57 81 82 63 57 74 74 -63 57 -82 -8 callgsubr
            -82 -63 -57 -74 -74 63 -57 82 81 63 57 74 74 -63 57 -81 hvcurveto
            return
          </CharString>
          <CharString index="5">
            346 hlineto
            -541 -74 callgsubr
            rlineto
            -303 hlineto
            -539 -56 callsubr
            rlineto
            346 hlineto
            91 281 rlineto
            509 hlineto
            -424 262 rmoveto
            169 520 169 -520 rlineto
            endchar
          </CharString>
          <CharString index="6">
            rmoveto
            -180 -132 -132 -156 -179 102 -84 161 52 52 19 31 40 hvcurveto
            -130 -20 -93 -13 -131 hhcurveto
            -13 -170 16 hlineto
            249 210 86 347 hvcurveto
            56 vlineto
            237 -145 88 -168 vhcurveto
            -98 -292 rmoveto
            65 37 54 61 64 35 -29 -78 vhcurveto
            -78 vlineto
            -17 -15 -29 -17 -45 hhcurveto
            -71 -37 33 67 hvcurveto
            endchar
          </CharString>
          <CharString index="7">
            rmoveto
            172 vlineto
            216 -130 105 -183 -184 -128 -105 -216 vhcurveto
            -172 vlineto
            -217 129 -101 185 182 129 101 217 vhcurveto
            -214 178 rmoveto
            -184 vlineto
            -108 -38 -31 -59 -62 -37 31 108 vhcurveto
            184 vlineto
            106 37 36 60 60 39 -36 -106 vhcurveto
            endchar
          </CharString>
          <CharString index="8">
            vstem
            1309 -66 callsubr
            -364 hlineto
            -196 -409 -282 409 rlineto
            -363 hlineto
            265 -384 rlineto
            -152 -73 -63 -128 -221 vvcurveto
            -395 314 536 vlineto
            41 9 31 18 27 vhcurveto
            439 -635 rlineto
            362 hlineto
            -348 504 rlineto
            return
          </CharString>
          <CharString index="9">
            rmoveto
            323 -1 265 160 394 vvcurveto
            675 -1072 -252 122 vlineto
            -49 -80 -27 -122 -128 vvcurveto
            1 -107 105 -66 162 -25 150 29 rlinecurve
            215 vlineto
            -33 -2 -40 3 -30 7 rrcurveto
            55 vlineto
            78 12 66 27 77 vhcurveto
            347 -469 hlineto
            -164 -97 -84 -189 -1 vhcurveto
            -90 -142 19 38 -134 hvcurveto
            -60 -238 rlineto
            -50 140 174 -27 135 hhcurveto
            return
          </CharString>
          <CharString index="10">
            rmoveto
            -325 -954 hlineto
            -183 -85 -78 -154 -153 -89 78 183 vhcurveto
            954 -325 -954 vlineto
            -340 233 -182 334 333 231 182 340 vhcurveto
            endchar
          </CharString>
          <CharString index="11">
            rmoveto
            hintmask 11111000
            82 30 54 57 82 vvcurveto
            148 -132 79 -190 -159 -144 -76 -151 vhcurveto
            214 hlineto
            35 44 19 51 76 26 -39 -32 -51 -34 -33 -72 vhcurveto
            -90 -140 90 hlineto
            hintmask 11110100
            74 46 -24 -64 -43 -31 -40 -77 -72 -44 38 40 hvcurveto
            -216 hlineto
            -185 170 -66 148 190 146 85 148 105 -59 54 -91 24 vhcurveto
            endchar
          </CharString>
          <CharString index="12">
            rmoveto
            hintmask 10111000
            -757 vlineto
            -58 -32 -57 -35 -96 hhcurveto
            -88 -57 45 103 hvcurveto
            702 -312 -700 vlineto
            -286 147 -116 214 128 97 50 84 67 vhcurveto
            hintmask 01111000
            9 -114 rlineto
            293 1082 hlineto
            endchar
          </CharString>
          <CharString index="13">
            172 -340 vlineto
            96 73 rlineto
            hintmask 11101000
            153 117 70 68 120 vvcurveto
            161 -114 90 -200 -188 -118 -126 -152 vhcurveto
            215 hlineto
            55 34 50 67 60 30 -30 -48 -28 -31 -63 -71 -60 vhcurveto
            -286 -255 rlineto
            -144 vlineto
            endchar
          </CharString>
          <CharString index="14">
            -15 callgsubr
            681 -24 rmoveto
            325 217 225 339 hvcurveto
            115 vlineto
            377 -210 200 -376 -188 -233 -31 -47 -162 vhcurveto
            61 -236 40 11 73 18 37 7 rlinecurve
            2 -4 -6 -5 -5 -5 -6 -7 rlinecurve
            -58 -65 -55 -145 2 -114 1 -69 rcurveline
            -339 5 218 -225 318 hhcurveto
            -1 268 rmoveto
            -130 -86 118 176 hvcurveto
            93 vlineto
            219 1 76 117 138 hhcurveto
            141 77 -111 -206 hvcurveto
            -112 vlineto
            -176 -87 -118 -130 vhcurveto
            return
          </CharString>
          <CharString index="15">
            60 -58 callgsubr
            -60 -60 -44 -38 -54 -53 45 -40 59 hvcurveto
            return
          </CharString>
          <CharString index="16">
            rmoveto
            252 -871 -1165 868 251 -555 225 470 252 -470 185 vlineto
            endchar
          </CharString>
          <CharString index="17">
            980 rmoveto
            -124 -98 -48 -69 -68 hvcurveto
            234 35 175 122 253 hhcurveto
            18 256 -47 hlineto
            -440 -313 -302 -489 hvcurveto
            -120 vlineto
            -360 215 -224 309 298 201 217 284 279 -143 220 -271 vhcurveto
            -93 -748 rmoveto
            -126 -78 93 193 hvcurveto
            94 vlineto
            65 31 69 53 96 hhcurveto
            123 80 -98 -151 -143 -78 -106 -117 hvcurveto
            endchar
          </CharString>
          <CharString index="18">
            173 154 173 139 173 hstemhm
            70 215 -197 215 159 215 -196 214 hintmask 00000000
            hintmask 11100010
            567 return
          </CharString>
          <CharString index="19">
            -105 -69 -71 -94 -93 69 -71 105 105 69 71 93 94 -69 71 -105 hvcurveto
            return
          </CharString>
          <CharString index="20">
            240 vlineto
            12 -47 -50 9 -55 hhcurveto
            -249 -157 -135 -250 hvcurveto
            -90 -63 callgsubr
            return
          </CharString>
          <CharString index="21">
            21 -21 19 callgsubr
            return
          </CharString>
          <CharString index="22">
            796 1476 rmoveto
            -392 -318 -324 -423 -423 318 -326 392 391 319 326 423 423 -319 324 -391 hvcurveto
            -1371 vmoveto
            -325 -263 271 353 353 263 269 325 324 263 -269 -353 -353 -263 -271 -324 hvcurveto
            return
          </CharString>
          <CharString index="23">
            -176 11 rlineto
            -61 -38 -31 -45 vhcurveto
            return
          </CharString>
          <CharString index="24">
            -62 callsubr
            -80 callgsubr
            -84 callsubr
            return
          </CharString>
          <CharString index="25">
            322 vstem
            1129 -66 callsubr
            -998 -252 122 hlineto
            -49 -80 -27 -140 -128 vvcurveto
            1 -148 105 -66 162 -25 150 29 rlinecurve
            215 vlineto
            -33 -2 -40 3 -30 7 rrcurveto
            96 vlineto
            78 12 84 27 77 vhcurveto
            276 -1365 322 hlineto
            return
          </CharString>
          <CharString index="26">
            rmoveto
            325 686 -511 -252 186 hlineto
            return
          </CharString>
          <CharString index="27">
            21 -21 -23 callsubr
            return
          </CharString>
          <CharString index="28">
            689 -24 rmoveto
            316 210 209 311 hvcurveto
            329 vlineto
            244 -128 146 -216 -78 -100 -28 -41 -73 vhcurveto
            30 -208 rlineto
            9 42 35 5 29 hhcurveto
            90 44 -50 -103 hvcurveto
            -341 vlineto
            -140 -81 -93 -121 -120 -81 93 140 vhcurveto
            return
          </CharString>
          <CharString index="29">
            -252 184 hlineto
            -47 -77 -20 -117 -76 vvcurveto
            -284 vlineto
            -103 -51 -48 -92 -23 -21 1 1 -21 vhcurveto
            hintmask 01011100
            -251 vlineto
            hintmask 10011100
            -8 54 43 -5 58 hhcurveto
            233 137 142 246 hvcurveto
            339 vlineto
            73 11 92 18 75 vhcurveto
            return
          </CharString>
          <CharString index="30">
            170 93 159 219 173 hstem
            67 214 197 214 vstem
            379 return
          </CharString>
          <CharString index="31">
            rmoveto
            120 -643 -173 418 vlineto
            -328 -616 rlineto
            225 hlineto
            endchar
          </CharString>
          <CharString index="32">
            173 213 145 102 167 hstem
            65 216 196 214 vstem
            82 return
          </CharString>
          <CharString index="33">
            -157 -28 134 162 hvcurveto
            25 vlineto
            158 29 139 154 111 56 -79 -100 1 vhcurveto
            293 hlineto
            return
          </CharString>
          <CharString index="34">
            -20 -54 callgsubr
            207 207 12 callsubr
            return
          </CharString>
          <CharString index="35">
            rmoveto
            -129 -107 -51 -94 -74 hvcurveto
            -10 125 rlineto
            -292 -1082 311 759 hlineto
            57 33 54 34 79 hhcurveto
            104 59 -33 -132 hvcurveto
            -685 313 683 vlineto
            312 -138 107 -203 vhcurveto
            endchar
          </CharString>
          <CharString index="36">
            -159 238 158 vlineto
            128 41 88 45 77 vhcurveto
            -141 79 rlineto
            -97 -84 -86 -154 -133 vvcurveto
            return
          </CharString>
          <CharString index="37">
            -203 -76 133 307 hvcurveto
            86 vlineto
            309 91 130 188 192 70 -88 -167 10 vhcurveto
            324 hlineto
            300 -28 -196 221 -372 hhcurveto
            -369 -239 -272 -435 hvcurveto
            -84 vlineto
            return
          </CharString>
          <CharString index="38">
            173 465 173 hstem
            70 215 196 214 vstem
            695 return
          </CharString>
          <CharString index="39">
            -159 -62 93 233 hvcurveto
            43 vlineto
            226 73 100 143 158 56 -84 -95 3 vhcurveto
            312 hlineto
            247 -23 -175 184 -331 hhcurveto
            -319 -210 -219 -360 hvcurveto
            -42 vlineto
            return
          </CharString>
          <CharString index="40">
            -147 0 251 225 252 25 callsubr
            return
          </CharString>
          <CharString index="41">
            1201 rmoveto
            return
          </CharString>
          <CharString index="42">
            1452 -73 callgsubr
            -58 -32 callgsubr
            58 hvcurveto
            -976 -14 callgsubr
            return
          </CharString>
          <CharString index="43">
            172 456 173 hstemhm
            54 215 -215 641 -235 214 hintmask 11010000
            695 return
          </CharString>
          <CharString index="44">
            18 0 261 360 253 320 262 return
          </CharString>
          <CharString index="45">
            103 47 -84 126 hhcurveto
            return
          </CharString>
          <CharString index="46">
            21 -12 callgsubr
            223 -69 callgsubr
            180 313 return
          </CharString>
          <CharString index="47">
            458 hlineto
            394 276 283 413 hvcurveto
            63 vlineto
            413 -277 284 -393 vhcurveto
            340 -760 rmoveto
            -284 -120 -151 -220 vhcurveto
            -133 return
          </CharString>
          <CharString index="48">
            85 -16 248 700 249 return
          </CharString>
          <CharString index="49">
            43 40 53 return
          </CharString>
          <CharString index="50">
            283 -20 266 963 267 return
          </CharString>
          <CharString index="51">
            -1456 return
          </CharString>
          <CharString index="52">
            54 -43 38 return
          </CharString>
          <CharString index="53">
            hhcurveto
            273 147 238 315 hvcurveto
            21 vlineto
            329 -147 219 -275 vhcurveto
            110 -569 rmoveto
            hintmask 10111000
            -166 -47 -135 -140 return
          </CharString>
          <CharString index="54">
            -43 callsubr
            -312 -1165 vlineto
            endchar
          </CharString>
          <CharString index="55">
            -36 callsubr
            828 hmoveto
            325 763 hlineto
            277 -177 161 -306 vhcurveto
            -525 -252 501 hlineto
            122 60 -58 -113 hvcurveto
            return
          </CharString>
          <CharString index="56">
            hstem
            111 325 481 -36 callsubr
            return
          </CharString>
          <CharString index="57">
            185 254 252 return
          </CharString>
          <CharString index="58">
            rmoveto
            1 209 rlineto
            -256 -227 hlineto
            -153 -60 -85 -46 -91 vhcurveto
            160 -80 rlineto
            115 100 86 168 159 vvcurveto
            endchar
          </CharString>
          <CharString index="59">
            24 -37 callgsubr
            return
          </CharString>
          <CharString index="60">
            -98 -72 84 -106 hhcurveto
            return
          </CharString>
          <CharString index="61">
            312 vstem
            return
          </CharString>
          <CharString index="62">
            -43 callsubr
            -312 -693 vlineto
            -428 693 rlineto
            -313 -27 callgsubr
            693 hlineto
            428 -693 rlineto
            endchar
          </CharString>
          <CharString index="63">
            rmoveto
            -337 hlineto
            -225 -476 -223 476 rlineto
            -336 hlineto
            400 -746 rlineto
            -419 313 407 vlineto
            endchar
          </CharString>
          <CharString index="64">
            1165 return
          </CharString>
          <CharString index="65">
            hstem
            -39 callgsubr
            return
          </CharString>
          <CharString index="66">
            -196 hlineto
            236 -399 -236 -400 rlineto
            196 hlineto
            return
          </CharString>
          <CharString index="67">
            234 -27 258 207.18 226.82 return
          </CharString>
          <CharString index="68">
            312 hstem
            return
          </CharString>
          <CharString index="69">
            166 hvcurveto
            21 vlineto
            172 return
          </CharString>
          <CharString index="70">
            328 599 329 vstem
            return
          </CharString>
          <CharString index="71">
            325 vstem
            return
          </CharString>
          <CharString index="72">
            -14 rmoveto
            181 143 136 178 31 hvcurveto
            6 hlineto
            return
          </CharString>
          <CharString index="73">
            hstemhm
            67 997 -306 306 hintmask 11111000
            return
          </CharString>
          <CharString index="74">
            13 callgsubr
            308 313 return
          </CharString>
          <CharString index="75">
            -9 callsubr
            313 return
          </CharString>
          <CharString index="76">
            500 253 hstem
            130 581 vstem
            711 500 rmoveto
            253 -581 -253 vlineto
            endchar
          </CharString>
          <CharString index="77">
            rmoveto
            314 869 hlineto
            100 7 71 11 52 vhcurveto
            -259 hlineto
            -23 -25 -50 -67 -166 vvcurveto
            endchar
          </CharString>
          <CharString index="78">
            -36 callsubr
            60 -66 callsubr
            -252 503 -949 325 949 212 252 vlineto
            return
          </CharString>
          <CharString index="79">
            173 hstem
            50 643 vstem
            693 return
          </CharString>
          <CharString index="80">
            921 -343 rmoveto
            59 43 40 53 54 -43 16 callsubr
            return
          </CharString>
          <CharString index="81">
            746 hlineto
            301 -165 154 -313 vhcurveto
            return
          </CharString>
          <CharString index="82">
            -329 20 callsubr
            -315 return
          </CharString>
          <CharString index="83">
            -334 hlineto
            return
          </CharString>
          <CharString index="84">
            -74 callgsubr
            -20 return
          </CharString>
          <CharString index="85">
            320 vstem
            592 -416 rmoveto
            320 1617 -842 -252 522 hlineto
            return
          </CharString>
          <CharString index="86">
            hintmask 11101001
            -62 callsubr
            return
          </CharString>
          <CharString index="87">
            hstem
            407 215 vstem
            706 return
          </CharString>
          <CharString index="88">
            -43 callsubr
            rmoveto
            return
          </CharString>
          <CharString index="89">
            rmoveto
            -105 -70 -66 -94 -93 70 -67 105 104 70 67 93 94 -70 66 -104 hvcurveto
            return
          </CharString>
          <CharString index="90">
            -21 1201 -20 hstem
            154 314 return
          </CharString>
          <CharString index="91">
            503 hmoveto
            return
          </CharString>
          <CharString index="92">
            42 8 callgsubr
            1019 312 31 callsubr
            return
          </CharString>
          <CharString index="93">
            43 -11 callsubr
            return
          </CharString>
          <CharString index="94">
            656 -37 253 return
          </CharString>
          <CharString index="95">
            -234 122 -94 202 71 58 10 18 53 vhcurveto
            235 vlineto
            return
          </CharString>
          <CharString index="96">
            -426 242 164 -78 callgsubr
            return
          </CharString>
          <CharString index="97">
            -277 -161 -158 -182 -189 165 -97 217 -46 return
          </CharString>
          <CharString index="98">
            -69 callgsubr
            91 return
          </CharString>
          <CharString index="99">
            63 vlineto
            293 return
          </CharString>
          <CharString index="100">
            -559 21 -21 1205 -39 callsubr
            129 -41 callgsubr
            return
          </CharString>
          <CharString index="101">
            -595 21 -21 1254 312 24 callgsubr
            return
          </CharString>
          <CharString index="102">
            60 128 123 78 -24 -21 76 vhcurveto
            44 258 rlineto
            34 return
          </CharString>
          <CharString index="103">
            31 callgsubr
            -160 137 hstemhm
            return
          </CharString>
          <CharString index="104">
            24 -117 hhcurveto
            -311 -180 -155 -287 hvcurveto
            -33 return
          </CharString>
          <CharString index="105">
            133 hlineto
            221 119 -150 -283 hvcurveto
            endchar
          </CharString>
          <CharString index="106">
            -37 callgsubr
            hstem
            return
          </CharString>
          <CharString index="107">
            115 -76 45 -74 13 return
          </CharString>
          <CharString index="108">
            -1131 -619 185 return
          </CharString>
          <CharString index="109">
            36 26 -3 -6 25 return
          </CharString>
          <CharString index="110">
            265 hstem
            139.5 324.5 return
          </CharString>
          <CharString index="111">
            50 -54 callgsubr
            498 250 239 256 hstem
            return
          </CharString>
          <CharString index="112">
            -68 callgsubr
            endchar
          </CharString>
          <CharString index="113">
            1224 return
          </CharString>
          <CharString index="114">
            324 vstem
            return
          </CharString>
          <CharString index="115">
            60 312 return
          </CharString>
          <CharString index="116">
            -558 -346 238 1572 239 hstem
            return
          </CharString>
          <CharString index="117">
            165 hvcurveto
            21 vlineto
            173 50 140 138 return
          </CharString>
          <CharString index="118">
            252 167 163 hstem
            return
          </CharString>
          <CharString index="119">
            204 252 return
          </CharString>
          <CharString index="120">
            162 314 return
          </CharString>
          <CharString index="121">
            1536 return
          </CharString>
          <CharString index="122">
            -86 callsubr
            175 326 return
          </CharString>
          <CharString index="123">
            38 -59 -60 -44 -38 -54 -53 45 -40 59 hvcurveto
            return
          </CharString>
          <CharString index="124">
            hhcurveto
            138 51 -125 -171 hvcurveto
            endchar
          </CharString>
          <CharString index="125">
            -293 hlineto
            -93 -1 -65 -57 -100 hhcurveto
            endchar
          </CharString>
          <CharString index="126">
            51 -59 -116 hvcurveto
            return
          </CharString>
          <CharString index="127">
            hvcurveto
            -21 vlineto
            return
          </CharString>
          <CharString index="128">
            786 36 callsubr
            return
          </CharString>
          <CharString index="129">
            21 -12 callgsubr
            204 271 return
          </CharString>
          <CharString index="130">
            21 -21 850 252 return
          </CharString>
          <CharString index="131">
            90 vlineto
            86 57 47 101 return
          </CharString>
          <CharString index="132">
            185 252 return
          </CharString>
          <CharString index="133">
            63 57 74 vhcurveto
            hintmask 10110000
            74 -63 57 return
          </CharString>
          <CharString index="134">
            -62 hvcurveto
            546 -312 -1536 return
          </CharString>
          <CharString index="135">
            271 110 83 42 71 62 vhcurveto
            return
          </CharString>
          <CharString index="136">
            -148 -227 148 -547 vlineto
            return
          </CharString>
          <CharString index="137">
            -136 211 212 107 136 return
          </CharString>
          <CharString index="138">
            hstem
            89 25 callgsubr
            -41 callgsubr
            return
          </CharString>
          <CharString index="139">
            hstem
            8 callsubr
            410 -46 callsubr
            return
          </CharString>
          <CharString index="140">
            vhcurveto
            -42 vlineto
            return
          </CharString>
          <CharString index="141">
            -21 41 -16 callgsubr
            return
          </CharString>
          <CharString index="142">
            -64 -88 50 -120 hhcurveto
            -274 return
          </CharString>
          <CharString index="143">
            hstem
            322 213 vstem
            535 return
          </CharString>
          <CharString index="144">
            -305 -20 263 -242 -21 return
          </CharString>
          <CharString index="145">
            hstemhm
            81 297 303 301 return
          </CharString>
          <CharString index="146">
            -167 -10 -85 -78 -175 hhcurveto
            return
          </CharString>
          <CharString index="147">
            312 hintmask 00000000
            return
          </CharString>
        <CharString name=".notdef">
          220 -555 186 90 126 90 62 89 127 89 162 89 65 151 60 91 63 89 100 89 73 92 97 92 70 89 100 89 181 hstemhm
          251 200 89 89 -89 270 -89 89 89 208 hintmask 111111111111111101100000
          1107 2146 rmoveto
          -856 -2701 856 hlineto
          -208 2520 rmoveto
          -89 -178 -100 178 -89 -448 89 178 100 -175 89 vlineto
          267 -348 rmoveto
          -189 178 -92 -448 281 vlineto
          178 -92 rmoveto
          -89 -97 89 hlineto
          270 -165 rmoveto
          -89 -178 -189 -270 89 178 100 -178 89 vlineto
          448 -162 rmoveto
          -270 -448 91 359 179 vlineto
          89 -330 rmoveto
          -305 -448 305 89 -216 270 127 -89 -62 -92 151 vlineto
          270 -467 rmoveto
          -305 -448 305 vlineto
          hintmask 111100000000001010100000
          359 -89 rmoveto
          -270 -127 270 hlineto
          89 -151 rmoveto
          -90 -86 vlineto
          -189 -126 rlineto
          275 -90 -448 90 hlineto
          189 126 rlineto
          -189 90 hlineto
          endchar
        </CharString>
        <CharString name=".null">
          -1131 endchar
        </CharString>
        <CharString name="A">
          -76 callgsubr
          0 callgsubr
          1039 hmoveto
          -102 callsubr
        </CharString>
        <CharString name="A.smcp">
          -47 callgsubr
          hstem
          -7 1217 vstem
          896 hmoveto
          -102 callgsubr
        </CharString>
        <CharString name="AE">
          795 0 255 76 262 25 255 328 255 hstemhm
          9 1850 hintmask 10111000
          1263 255 rmoveto
          -15 363 rlineto
          469 255 -480 hlineto
          -13 328 rlineto
          574 255 -1027 hlineto
          -762 -56 callsubr
          rlineto
          363 hlineto
          hintmask 11111000
          160 331 rlineto
          416 hlineto
          14 -331 rlineto
          897 255 hlineto
          -1200 338 rmoveto
          256 529 22 -529 rlineto
          endchar
        </CharString>
        <CharString name="AE.smcp">
          490 0 250 -43 246 27 250 185 250 hstemhm
          -54 1616 hintmask 10111000
          1024 250 rmoveto
          -9 230 rlineto
          441 250 -451 hlineto
          -7 185 rlineto
          518 250 -1003 hlineto
          -567 -1165 rlineto
          338 hlineto
          hintmask 01111000
          93 207 rlineto
          339 hlineto
          hintmask 10111000
          8 -207 rlineto
          838 250 hlineto
          hintmask 01111000
          -1076 203 rmoveto
          203 453 18 -453 rlineto
          endchar
        </CharString>
        <CharString name="Aacute">
          -76 callgsubr
          98 312 0 callgsubr
          1073 1846 rmoveto
          -335 hlineto
          -92 callgsubr
          244 -1534 rmoveto
          -102 callsubr
        </CharString>
        <CharString name="Aacute.smcp">
          -47 callgsubr
          820 -39 callsubr
          -7 1217 vstem
          981 1566 rmoveto
          -335 hlineto
          -92 callgsubr
          193 -1254 rmoveto
          -102 callgsubr
        </CharString>
        <CharString name="Acircumflex">
          -76 callgsubr
          117 13 0 callgsubr
          696 1691 rmoveto
          157 -138 rlineto
          247 13 hlineto
          -100 callgsubr
          499 -1553 rmoveto
          -102 callsubr
        </CharString>
        <CharString name="Acircumflex.smcp">
          -47 callgsubr
          839 13 hstem
          -7 1217 vstem
          604 1411 rmoveto
          157 -138 rlineto
          247 13 hlineto
          -100 callgsubr
          448 -1273 rmoveto
          -102 callgsubr
        </CharString>
        <CharString name="Adieresis">
          -76 callgsubr
          108 262 0 callgsubr
          443 1544 -103 callgsubr
          93 -1544 rmoveto
          -102 callsubr
        </CharString>
        <CharString name="Adieresis.smcp">
          -47 callgsubr
          830 -7 callgsubr
          -7 1217 vstem
          351 1264 -103 callgsubr
          42 -1264 rmoveto
          -102 callgsubr
        </CharString>
        <CharString name="Agrave">
          -76 callgsubr
          98 312 0 callgsubr
          871 1534 -98 callgsubr
          422 -1534 rmoveto
          -102 callsubr
        </CharString>
        <CharString name="Agrave.smcp">
          -47 callgsubr
          820 -39 callsubr
          -7 1217 vstem
          779 1254 -98 callgsubr
          371 -1254 rmoveto
          -102 callgsubr
        </CharString>
        <CharString name="Aring">
          -76 callgsubr
          94 95 212 96 hstem
          474 2 callgsubr
          vstem
          698 1530 -87 callgsubr
          341 -1837 rmoveto
          -102 callsubr
        </CharString>
        <CharString name="Aring.smcp">
          -47 callgsubr
          816 95 212 96 hstem
          382 2 callgsubr
          vstem
          606 1250 -87 callgsubr
          290 -1557 rmoveto
          -102 callgsubr
        </CharString>
        <CharString name="Atilde">
          -76 callgsubr
          129 -62 callgsubr
          314 -50 callgsubr
          hintmask 00000000
          hintmask 11101110
          572 1649 rmoveto
          hintmask 11110110
          -83 callsubr
          hintmask 11101110
          -47 callsubr
          -95 callgsubr
          hintmask 11110110
          467 -1649 rmoveto
          -102 callsubr
        </CharString>
        <CharString name="Atilde.smcp">
          -47 callgsubr
          851 -62 callgsubr
          222 -50 callgsubr
          hintmask 00000000
          hintmask 11011100
          480 1369 rmoveto
          hintmask 11101100
          -83 callsubr
          -47 callsubr
          hintmask 11011100
          -95 callgsubr
          hintmask 11101100
          416 -1369 rmoveto
          -102 callgsubr
        </CharString>
        <CharString name="B">
          183 0 261 363 224 346 262 hstemhm
          -39 callgsubr
          423 324 -292 324 hintmask 11110100
          988 746 rmoveto
          hintmask 11111000
          145 57 60 121 131 vvcurveto
          272 -208 129 -348 vhcurveto
          -516 -56 callsubr
          568 hlineto
          hintmask 11110100
          347 189 145 285 136 -67 137 -170 43 hvcurveto
          -351 448 rmoveto
          hintmask 11111000
          161 71 -52 -125 -111 -71 -58 -161 hvcurveto
          -191 346 hlineto
          hintmask 11110100
          243 -933 rmoveto
          -243 363 256 hlineto
          143 56 -73 -116 -98 -63 -76 -149 hvcurveto
          endchar
        </CharString>
        <CharString name="B.smcp">
          8 0 251 224 207 231 -32 callsubr
          vstem
          873 588 rmoveto
          127 46 45 104 104 vvcurveto
          217 -183 106 -313 vhcurveto
          -458 -1165 504 hlineto
          314 162 101 233 99 -52 118 -146 37 hvcurveto
          -296 325 rmoveto
          105 51 -32 -87 -75 -51 -37 -113 hvcurveto
          -165 231 hlineto
          191 -662 rmoveto
          -191 224 204 hlineto
          110 41 -43 -73 -52 -44 -56 -120 hvcurveto
          endchar
        </CharString>
        <CharString name="C">
          211 -20 266 965 266 hstem
          79 329 vstem
          1281 491 rmoveto
          -324 hlineto
          39 callsubr
          -70 callsubr
          -436 228 -270 380 359 218 208 303 17 vhcurveto
          endchar
        </CharString>
        <CharString name="C.smcp">
          26 8 callgsubr
          695 -69 callgsubr
          56 -41 callgsubr
          1112 405 rmoveto
          16 callgsubr
          -68 callsubr
          -360 196 -217 338 310 200 165 256 12 vhcurveto
          endchar
        </CharString>
        <CharString name="C.ss06">
          248 -21 261 975 -7 callgsubr
          78 -36 callsubr
          1316 491 rmoveto
          -323 hlineto
          -157 -20 -81 -94 -175 hhcurveto
          -203 -111 172 293 hvcurveto
          47 vlineto
          295 126 168 188 192 64 -92 -167 21 vhcurveto
          325 hlineto
          318 -30 -200 203 -372 hhcurveto
          -369 -270 -278 -449 hvcurveto
          -45 vlineto
          -449 257 -277 382 360 210 183 329 29 vhcurveto
          endchar
        </CharString>
        <CharString name="Ccedilla">
          211 -470 180 299 -21 23 -21 1221 266 hstemhm
          79 329 271 267 hintmask 10111100
          687 246 rmoveto
          -70 callsubr
          -388 181 -257 308 -51 vhcurveto
          -27 -127 rlineto
          -81 callgsubr
          hvcurveto
          hintmask 11011100
          0 callsubr
          vhcurveto
          7 40 290 40 173 194 15 269 rlinecurve
          -324 hlineto
          hintmask 10111100
          39 callsubr
          endchar
        </CharString>
        <CharString name="Ccedilla.smcp">
          26 -465 180 299 -21 937 -69 callgsubr
          56 313 216 267 vstem
          590 235 rmoveto
          -68 callsubr
          -317 152 -205 266 -46 vhcurveto
          -27 -125 rlineto
          -81 callgsubr
          0 callsubr
          hvcurveto
          7 40 242 37 151 154 10 221 rlinecurve
          16 callgsubr
          endchar
        </CharString>
        <CharString name="D">
          197 0 261 933 -36 callgsubr
          473 330 vstem
          579 -29 callgsubr
          -458 -56 callsubr
          -60 callsubr
          933 -2 callsubr
        </CharString>
        <CharString name="D.smcp">
          7 0 251 662 -32 callsubr
          363 7 callgsubr
          498 -19 callsubr
          -407 -1165 -55 callgsubr
          662 18 callgsubr
        </CharString>
        <CharString name="D.ss06">
          253 0 261 933 -7 callgsubr
          121 324 535 -36 callsubr
          578 -29 callgsubr
          -457 -56 callsubr
          458 hlineto
          441 285 305 401 hvcurveto
          43 vlineto
          401 -285 306 -442 vhcurveto
          402 -750 rmoveto
          -244 -119 -201 -303 vhcurveto
          -113 933 113 hlineto
          304 118 -199 -244 hvcurveto
          endchar
        </CharString>
        <CharString name="E">
          -63 callsubr
          hstem
          121 325 vstem
          1110 1194 -90 callgsubr
        </CharString>
        <CharString name="E.smcp">
          -67 callsubr
          hstem
          91 -41 callgsubr
          962 913 -91 callsubr
        </CharString>
        <CharString name="Eacute">
          -63 callsubr
          79 312 -42 callsubr
          vstem
          1016 1847 rmoveto
          -335 hlineto
          -92 callgsubr
          372 -341 -90 callgsubr
        </CharString>
        <CharString name="Eacute.smcp">
          -67 callsubr
          89 -39 callsubr
          91 -41 callgsubr
          934 1566 rmoveto
          -335 hlineto
          -92 callgsubr
          306 -341 -91 callsubr
        </CharString>
        <CharString name="Ecircumflex">
          -63 callsubr
          98 13 -42 callsubr
          vstem
          639 1692 rmoveto
          157 -138 rlineto
          247 13 hlineto
          -100 callgsubr
          627 -360 -90 callgsubr
        </CharString>
        <CharString name="Ecircumflex.smcp">
          -67 callsubr
          108 13 hstem
          91 -41 callgsubr
          557 1411 rmoveto
          157 -138 rlineto
          247 13 hlineto
          -100 callgsubr
          561 -360 -91 callsubr
        </CharString>
        <CharString name="Edieresis">
          -63 callsubr
          89 36 callgsubr
          386 1545 -103 callgsubr
          221 -351 -90 callgsubr
        </CharString>
        <CharString name="Edieresis.smcp">
          -67 callsubr
          99 -7 callgsubr
          91 -41 callgsubr
          304 1264 -103 callgsubr
          155 -351 -91 callsubr
        </CharString>
        <CharString name="Egrave">
          -63 callsubr
          79 312 -42 callsubr
          vstem
          814 1535 -98 callgsubr
          550 -341 -90 callgsubr
        </CharString>
        <CharString name="Egrave.smcp">
          -67 callsubr
          89 -39 callsubr
          91 -41 callgsubr
          732 1254 -98 callgsubr
          484 -341 -91 callsubr
        </CharString>
        <CharString name="Eth">
          197 0 261 377 188 368 -36 callgsubr
          473 330 vstem
          579 -29 callgsubr
          -458 -630 -146 -188 146 -638 -60 callsubr
          377 243 188 -243 368 -2 callsubr
        </CharString>
        <CharString name="Eth.smcp">
          7 0 251 235 188 239 -32 callsubr
          363 7 callgsubr
          498 -19 callsubr
          -407 -491 -211 -188 211 -486 -55 callgsubr
          235 190 188 -190 239 18 callgsubr
        </CharString>
        <CharString name="Euro">
          50 -19 260 270 157 123 157 266 261 hstemhm
          255 325 hintmask 00000000
          hintmask 11111000
          879 241 rmoveto
          -173 -117 58 212 -9 hvcurveto
          324 157 -324 123 324 157 -321 hlineto
          191 19 108 75 176 hhcurveto
          60 66 -13 -19 50 hvcurveto
          40 262 rlineto
          19 -77 -78 12 -79 hhcurveto
          -342 -242 -181 -346 -27 hvcurveto
          -169 -157 167 -123 -167 -157 167 hlineto
          -351 11 243 -179 333 hhcurveto
          91 88 11 19 81 hvcurveto
          -40 261 rlineto
          -21 -56 -62 -10 -65 hhcurveto
          endchar
        </CharString>
        <CharString name="Euro.smcp">
          -98 -16 252 129 178 69 179 142 -42 callgsubr
          72 890 hintmask 00000000
          hintmask 11111000
          739 236 rmoveto
          -110 -62 43 86 -26 hvcurveto
          341 178 -354 69 354 179 -341 hlineto
          92 26 61 50 109 hhcurveto
          79 52 -9 -20 72 hvcurveto
          22 247 rlineto
          24 -80 -60 10 -85 hhcurveto
          -283 -185 -147 -247 -44 hvcurveto
          -153 -179 143 -69 -143 -178 152 hlineto
          -236 43 187 -145 285 hhcurveto
          84 63 11 20 75 hvcurveto
          -22 247 rlineto
          -14 -67 -55 -12 -78 hhcurveto
          endchar
        </CharString>
        <CharString name="F">
          -9 21 -21 585 261 348 36 callgsubr
          1082 1194 rmoveto
          262 -961 -56 callsubr
          325 585 571 261 -571 348 vlineto
          endchar
        </CharString>
        <CharString name="F.smcp">
          -168 21 -21 445 251 217 -32 callsubr
          vstem
          935 913 rmoveto
          252 -844 -27 callgsubr
          445 484 251 -484 217 vlineto
          endchar
        </CharString>
        <CharString name="G">
          265 -20 261 298 235 442 261 hstem
          89 329 550 7 callsubr
          1292 181 rmoveto
          593 -583 -235 259 -233 vlineto
          -28 -31 -63 -37 -129 hhcurveto
          -219 -108 150 295 hvcurveto
          85 vlineto
          296 109 149 187 172 70 -86 -145 22 vhcurveto
          313 hlineto
          288 -31 -167 204 -389 hhcurveto
          -365 -250 -256 -452 hvcurveto
          -83 vlineto
          -452 254 -254 382 317 178 119 82 72 vhcurveto
          endchar
        </CharString>
        <CharString name="G.smcp">
          53 8 callgsubr
          184 219 292 -69 callgsubr
          68 312 430 7 callgsubr
          1124 139 rmoveto
          499 -527 -219 213 -150 vlineto
          -15 -23 -54 -19 -88 hhcurveto
          -182 -83 101 217 hvcurveto
          60 vlineto
          223 98 94 138 135 55 -49 -112 17 vhcurveto
          300 hlineto
          243 -24 -143 170 -351 hhcurveto
          -309 -228 -204 -367 hvcurveto
          -58 vlineto
          -367 219 -202 335 269 166 88 67 67 vhcurveto
          endchar
        </CharString>
        <CharString name="G.ss06">
          288 -21 261 283 235 457 -7 callgsubr
          78 325 591 -36 callsubr
          1319 180 rmoveto
          578 -563 -235 238 -229 vlineto
          -27 -28 -73 -27 -117 hhcurveto
          -231 -142 188 267 hvcurveto
          57 vlineto
          281 132 182 200 159 90 -85 -145 20 vhcurveto
          314 hlineto
          288 -30 -187 204 -376 hhcurveto
          -378 -269 -290 -437 hvcurveto
          -55 vlineto
          -424 292 -292 406 295 180 119 82 68 vhcurveto
          endchar
        </CharString>
        <CharString name="H">
          313 21 -21 613 261 582 -20 -42 callsubr
          552 7 callsubr
          998 -29 callgsubr
          -582 -552 582 -325 -56 callsubr
          325 613 552 -613 324 -74 callgsubr
          vlineto
          endchar
        </CharString>
        <CharString name="H.smcp">
          105 21 -21 445 251 hstem
          91 313 430 20 callgsubr
          834 -19 callsubr
          -469 -430 469 -313 -27 callgsubr
          445 430 -445 311 -43 callsubr
          vlineto
          endchar
        </CharString>
        <CharString name="I">
          -20 callgsubr
          hstem
          142 7 callsubr
          466 hmoveto
          -52 callgsubr
        </CharString>
        <CharString name="I.smcp">
          -595 21 -21 24 callgsubr
          424 hmoveto
          -53 callsubr
        </CharString>
        <CharString name="Iacute">
          -20 callgsubr
          99 -39 callsubr
          142 7 callsubr
          345 1847 rmoveto
          -92 callgsubr
          278 312 rlineto
          -214 -1847 rmoveto
          -52 callgsubr
        </CharString>
        <CharString name="Iacute.smcp">
          -6 callsubr
          311 1566 rmoveto
          -92 callgsubr
          278 312 rlineto
          -222 -1566 rmoveto
          -53 callsubr
        </CharString>
        <CharString name="Icircumflex">
          -20 callgsubr
          118 13 hstem
          142 7 callsubr
          707 1567 rmoveto
          -100 callgsubr
          156 138 157 -138 rlineto
          247 hlineto
          -241 -1554 rmoveto
          -52 callgsubr
        </CharString>
        <CharString name="Icircumflex.smcp">
          -595 21 -21 1273 13 24 callgsubr
          673 1286 rmoveto
          -100 callgsubr
          156 138 157 -138 rlineto
          247 hlineto
          -249 -1273 rmoveto
          -53 callsubr
        </CharString>
        <CharString name="Idieresis">
          -20 callgsubr
          109 -7 callgsubr
          142 7 callsubr
          50 1807 -103 callsubr
          -87 -1807 rmoveto
          -52 callgsubr
        </CharString>
        <CharString name="Idieresis.smcp">
          -595 21 -21 1264 262 24 callgsubr
          16 1526 -103 callsubr
          -95 -1526 rmoveto
          -53 callsubr
        </CharString>
        <CharString name="Igrave">
          -20 callgsubr
          99 -39 callsubr
          142 7 callsubr
          478 1535 -98 callgsubr
          242 -1535 rmoveto
          -52 callgsubr
        </CharString>
        <CharString name="Igrave.smcp">
          -6 callsubr
          444 1254 -98 callgsubr
          234 -1254 rmoveto
          -53 callsubr
        </CharString>
        <CharString name="J">
          17 -20 261 1215 -20 hstem
          705 323 vstem
          705 -29 callgsubr
          -1002 vlineto
          -134 -65 -79 -106 -107 -63 45 151 vhcurveto
          -325 hlineto
          -314 207 -143 288 279 215 183 291 vhcurveto
          1002 vlineto
          endchar
        </CharString>
        <CharString name="J.smcp">
          -139 8 callgsubr
          hstem
          587 -41 callgsubr
          587 -19 callsubr
          -756 vlineto
          -122 -37 -52 -77 -89 -40 46 102 vhcurveto
          -313 hlineto
          -275 176 -124 266 233 194 155 270 vhcurveto
          756 vlineto
          endchar
        </CharString>
        <CharString name="K">
          174 -80 callsubr
          -42 callsubr
          vstem
          940 hmoveto
          384 hlineto
          -511 810 503 646 rlineto
          -399 hlineto
          -344 -464 -127 -183 rlineto
          647 -325 -56 callsubr
          325 399 vlineto
          151 163 rlineto
          endchar
        </CharString>
        <CharString name="K.alt">
          193 21 -21 582 305 569 -20 hstem
          121 7 callsubr
          959 hmoveto
          385 hlineto
          -472 773 423 683 rlineto
          -393 hlineto
          -320 -569 rlineto
          -137 569 -324 -56 callsubr
          324 582 172 hlineto
          endchar
        </CharString>
        <CharString name="K.alt2">
          193 -80 callsubr
          hstem
          121 7 callsubr
          1314 hmoveto
          -558 734 529 722 rlineto
          -401 hlineto
          -439 -637 rlineto
          637 -324 -56 callsubr
          324 633 vlineto
          463 -633 rlineto
          endchar
        </CharString>
        <CharString name="K.smcp">
          -3 -18 callgsubr
          91 -41 callgsubr
          780 hmoveto
          368 hlineto
          -411 643 405 522 rlineto
          -392 hlineto
          -254 -341 -92 -129 rlineto
          470 -313 -27 callgsubr
          296 vlineto
          121 118 rlineto
          endchar
        </CharString>
        <CharString name="L">
          -21 0 261 1195 -20 -42 callsubr
          vstem
          446 261 rmoveto
          1195 -325 -56 callsubr
          949 261 vlineto
          endchar
        </CharString>
        <CharString name="L.smcp">
          -176 0 251 hstem
          91 -41 callgsubr
          404 251 rmoveto
          914 -313 -1165 832 251 vlineto
          endchar
        </CharString>
        <CharString name="M">
          664 -80 callsubr
          hstem
          121 324 902 -36 callsubr
          1672 -29 callgsubr
          -426 hlineto
          -350 -1026 -350 1026 rlineto
          -425 -56 callsubr
          324 358 hlineto
          -32 706 374 -1064 rlineto
          218 hlineto
          374 1064 -32 -706 rlineto
          -358 325 vlineto
          endchar
        </CharString>
        <CharString name="M.smcp">
          414 -18 callgsubr
          91 314 734 7 callgsubr
          1453 -19 callsubr
          -414 hlineto
          -268 -756 -268 756 rlineto
          -412 -1165 314 197 hlineto
          -33 629 297 -826 rlineto
          204 hlineto
          298 828 -32 -631 rlineto
          -197 314 vlineto
          endchar
        </CharString>
        <CharString name="N">
          312 -80 callsubr
          -42 callsubr
          551 7 callsubr
          1321 hmoveto
          -44 callgsubr
        </CharString>
        <CharString name="N.smcp">
          104 -18 callgsubr
          91 313 428 -46 callsubr
          1144 hmoveto
          -45 callsubr
        </CharString>
        <CharString name="Ntilde">
          312 -80 callsubr
          129 -62 callgsubr
          -39 callgsubr
          -102 -50 callgsubr
          -110 324 hintmask 00000000
          hintmask 11101010
          1107 1836 -91 callgsubr
          214 -1836 rmoveto
          -44 callgsubr
        </CharString>
        <CharString name="Ntilde.smcp">
          104 21 -21 1285 -62 callgsubr
          91 313 -162 -50 callgsubr
          -173 40 callsubr
          hintmask 11010100
          1005 1556 rmoveto
          -84 callsubr
          -47 callsubr
          hintmask 10101010
          -95 callgsubr
          hintmask 11010010
          -62 callsubr
          hintmask 11010100
          -80 callgsubr
          hintmask 11010010
          139 -1556 rmoveto
          -45 callsubr
        </CharString>
        <CharString name="O">
          -57 callsubr
          32 callgsubr
          1335 697 -107 callgsubr
        </CharString>
        <CharString name="O.smcp">
          -59 callsubr
          -56 callgsubr
          1159 561 -106 callgsubr
        </CharString>
        <CharString name="O.ss06">
          358 -21 261 975 -7 callgsubr
          78 325 683 7 callsubr
          1410 707 rmoveto
          42 vlineto
          407 -273 321 -394 -394 -271 -321 -407 33 callsubr
          -408 273 -320 394 394 271 320 408 vhcurveto
          -324 44 rmoveto
          -44 vlineto
          -254 -123 -213 -218 -219 -123 213 254 vhcurveto
          44 vlineto
          253 121 211 219 218 125 -211 -253 vhcurveto
          endchar
        </CharString>
        <CharString name="OE">
          858 -54 callgsubr
          -232 261 360 253 320 262 -232 -42 callgsubr
          95 312 501 325 hintmask 01110110
          1897 1194 rmoveto
          262 -897 vlineto
          hintmask 10101110
          11 -89 -100 9 -101 hhcurveto
          -366 -249 -243 -353 hvcurveto
          -304 vlineto
          -353 251 -243 366 vhcurveto
          hintmask 01110110
          101 98 10 10 89 hvcurveto
          897 261 -664 360 564 253 -564 320 hlineto
          hintmask 10101110
          -826 -618 rmoveto
          306 vlineto
          229 116 113 187 69 67 -5 -8 62 vhcurveto
          -966 vlineto
          -8 -62 -66 -5 -68 hhcurveto
          -187 -118 115 229 hvcurveto
          endchar
        </CharString>
        <CharString name="Oacute">
          -57 callsubr
          58 312 32 callgsubr
          747 1846 rmoveto
          -92 callgsubr
          278 312 rlineto
          253 -1149 -107 callgsubr
        </CharString>
        <CharString name="Oacute.smcp">
          -59 callsubr
          73 312 -56 callgsubr
          646 1566 rmoveto
          -92 callgsubr
          278 312 rlineto
          178 -1005 -106 callgsubr
        </CharString>
        <CharString name="Ocircumflex">
          -57 callsubr
          77 13 32 callgsubr
          1109 1566 rmoveto
          -100 callgsubr
          156 138 157 -138 rlineto
          247 hlineto
          226 -856 -107 callgsubr
        </CharString>
        <CharString name="Ocircumflex.smcp">
          -59 callsubr
          92 13 -56 callgsubr
          1008 1286 rmoveto
          -100 callgsubr
          156 138 157 -138 rlineto
          247 hlineto
          151 -712 -106 callgsubr
        </CharString>
        <CharString name="Odieresis">
          -57 callsubr
          68 262 32 callgsubr
          452 1806 -103 callsubr
          380 -1109 -107 callgsubr
        </CharString>
        <CharString name="Odieresis.smcp">
          -59 callsubr
          83 262 -56 callgsubr
          351 1526 -103 callsubr
          305 -965 -106 callgsubr
        </CharString>
        <CharString name="Ograve">
          -57 callsubr
          58 312 32 callgsubr
          880 1534 -98 callgsubr
          709 -837 -107 callgsubr
        </CharString>
        <CharString name="Ograve.smcp">
          -59 callsubr
          73 312 -56 callgsubr
          779 1254 -98 callgsubr
          634 -693 -106 callgsubr
        </CharString>
        <CharString name="Oslash">
          279 -20 266 963 267 hstem
          88 -37 callsubr
          1154 1299 rmoveto
          127 219 rlineto
          -196 hlineto
          -67 -115 rlineto
          48 -88 -103 25 -112 hhcurveto
          -370 -257 -273 -445 hvcurveto
          -61 vlineto
          -237 73 -188 125 -124 vhcurveto
          -142 -243 rlineto
          197 hlineto
          83 143 rlineto
          -45 86 99 -23 108 hhcurveto
          369 258 272 445 hvcurveto
          61 vlineto
          232 -71 185 -119 124 vhcurveto
          -738 -602 rmoveto
          -8 callsubr
          105 156 194 63 54 -17 -33 44 vhcurveto
          -421 -720 rlineto
          -26 69 -13 86 103 vvcurveto
          599 hmoveto
          -290 -107 -161 -191 -59 -51 15 29 -42 vhcurveto
          416 713 rlineto
          22 -66 12 -81 -96 vvcurveto
          endchar
        </CharString>
        <CharString name="Oslash.smcp">
          -59 callsubr
          37 -20 -56 callgsubr
          1011 1017 rmoveto
          147 201 rlineto
          -171 hlineto
          -83 -114 rlineto
          50 -84 -101 27 -112 hhcurveto
          -325 -226 -222 -356 hvcurveto
          -42 vlineto
          -174 55 -142 93 -99 vhcurveto
          -146 -201 rlineto
          171 hlineto
          84 114 rlineto
          -49 83 101 -26 112 hhcurveto
          321 229 221 356 hvcurveto
          42 vlineto
          173 -55 141 -93 100 vhcurveto
          -641 -456 rmoveto
          43 vlineto
          209 81 119 156 55 46 -16 -30 37 vhcurveto
          -354 -484 rlineto
          -14 45 -7 54 60 vvcurveto
          475 hmoveto
          -205 -88 -124 -148 -55 -46 16 29 -37 vhcurveto
          353 483 rlineto
          14 -44 7 -52 -60 vvcurveto
          endchar
        </CharString>
        <CharString name="Otilde">
          -57 callsubr
          89 -62 callgsubr
          79 328 -84 -50 callgsubr
          -80 329 hintmask 00000000
          hintmask 11101010
          1086 1836 -91 callgsubr
          249 -1139 -107 callgsubr
        </CharString>
        <CharString name="Otilde.smcp">
          -59 callsubr
          104 -62 callgsubr
          56 314 -148 -50 callgsubr
          -140 314 hintmask 00000000
          hintmask 11101010
          985 1556 rmoveto
          -84 callsubr
          -47 callsubr
          hintmask 11010101
          -95 callgsubr
          -21 callsubr
          hintmask 11101010
          -80 callgsubr
          hintmask 11101001
          174 -995 -106 callgsubr
        </CharString>
        <CharString name="P">
          196 21 -21 500 262 432 -36 callgsubr
          477 328 vstem
          696 -29 callgsubr
          -575 -56 callsubr
          325 500 250 hlineto
          346 209 184 282 283 -209 207 -346 hvcurveto
          -694 vmoveto
          -250 432 250 hlineto
          160 67 -109 -121 -117 -67 -85 -160 hvcurveto
          endchar
        </CharString>
        <CharString name="P.smcp">
          19 21 -21 371 252 290 -32 callsubr
          367 20 callgsubr
          594 -19 callsubr
          -503 -27 callgsubr
          371 190 hlineto
          302 186 157 225 238 -186 174 -302 hvcurveto
          -542 vmoveto
          -190 290 190 hlineto
          121 56 -75 -87 -73 -56 -55 -121 hvcurveto
          endchar
        </CharString>
        <CharString name="Q">
          283 -20 266 -238 -21 1222 267 hstemhm
          79 329 598 329 hintmask 01111000
          1335 697 rmoveto
          61 vlineto
          445 -260 273 -369 -370 -257 -273 -445 vhcurveto
          -61 vlineto
          hintmask 10111000
          -445 259 -272 370 35 33 2 5 33 vhcurveto
          310 -251 204 179 -236 188 rlineto
          hintmask 01111000
          155 121 93 205 268 vvcurveto
          hintmask 10111000
          -927 hmoveto
          -8 callsubr
          104 156 194 191 109 -156 -293 vhcurveto
          -63 vlineto
          -290 -107 -161 -191 -194 -106 161 290 vhcurveto
          endchar
        </CharString>
        <CharString name="Q.smcp">
          85 -16 248 -223 -21 944 249 hstemhm
          8 callsubr
          477 312 hintmask 01111000
          1161 561 rmoveto
          42 vlineto
          356 -231 222 -320 -325 -225 -222 -356 33 callsubr
          hintmask 10111000
          -356 227 -221 324 25 24 1 3 24 vhcurveto
          268 -207 193 166 -191 145 rlineto
          hintmask 01111000
          129 99 78 162 208 vvcurveto
          hintmask 10111000
          -789 hmoveto
          43 vlineto
          209 82 119 156 150 89 -119 -209 vhcurveto
          -43 vlineto
          -205 -88 -124 -150 -156 -83 124 205 vhcurveto
          endchar
        </CharString>
        <CharString name="Q.ss06">
          359 -21 261 -221 -21 1217 262 hstemhm
          78 325 683 324 hintmask 01111000
          1410 717 rmoveto
          21 vlineto
          433 -273 306 -394 -394 -271 -306 -433 vhcurveto
          -21 vlineto
          hintmask 10111000
          -433 273 -305 394 57 55 6 13 52 vhcurveto
          285 -251 203 179 -232 201 rlineto
          hintmask 01111000
          154 130 91 209 251 vvcurveto
          hintmask 10111000
          -1007 hmoveto
          23 vlineto
          280 121 195 219 218 125 -195 -280 vhcurveto
          -23 vlineto
          -278 -123 -199 -218 -219 -123 199 278 vhcurveto
          endchar
        </CharString>
        <CharString name="R">
          190 21 -21 520 262 412 -36 callgsubr
          451 -36 callsubr
          965 605 rmoveto
          157 71 100 120 220 vvcurveto
          287 -209 153 -335 vhcurveto
          -557 -56 callsubr
          325 520 217 hlineto
          263 -520 rlineto
          348 15 hlineto
          -828 1179 rmoveto
          232 hlineto
          146 73 -79 -128 -126 -73 -79 -146 hvcurveto
          -232 hlineto
          endchar
        </CharString>
        <CharString name="R.alt">
          201 0 30 526 262 376 262 hstemhm
          121 324 437 324 -309 324 hintmask 11111000
          1206 253 rmoveto
          92 vlineto
          168 -60 130 -190 54 vhcurveto
          hintmask 11110100
          163 61 102 96 172 vvcurveto
          273 -178 157 -335 vhcurveto
          -587 -56 callsubr
          324 556 229 hlineto
          hintmask 11111000
          144 64 -74 -139 hvcurveto
          -88 vlineto
          -41 5 -165 61 -49 vhcurveto
          333 30 hlineto
          -62 48 -13 129 46 vvcurveto
          -761 565 rmoveto
          376 242 vlineto
          hintmask 11110100
          146 64 -82 -115 -115 -74 -64 -146 hvcurveto
          endchar
        </CharString>
        <CharString name="R.smcp">
          24 21 -21 391 252 270 -32 callsubr
          351 -46 callsubr
          852 477 rmoveto
          129 60 86 86 194 vvcurveto
          229 -188 119 -288 vhcurveto
          -500 -27 callgsubr
          391 160 hlineto
          209 -391 rlineto
          336 13 hlineto
          -705 900 rmoveto
          187 hlineto
          104 60 -46 -87 -91 -55 -46 -109 hvcurveto
          -187 hlineto
          endchar
        </CharString>
        <CharString name="S">
          139 -20 256 983 257 hstemhm
          111 324 439 325 12 callgsubr
          602 604 rmoveto
          228 -74 44 -50 -94 vvcurveto
          -83 -64 -67 -144 -169 -105 59 173 vhcurveto
          -325 hlineto
          -340 305 -148 294 323 210 148 260 243 -172 137 -314 98 vhcurveto
          -177 55 -101 55 89 vvcurveto
          85 72 69 146 150 72 -80 -114 vhcurveto
          324 hlineto
          271 -218 180 -321 -319 -230 -160 -248 -259 230 -120 261 -85 vhcurveto
          endchar
        </CharString>
        <CharString name="S.smcp">
          -23 -16 227 742 228 hstemhm
          97 293 347 294 12 callgsubr
          526 463 rmoveto
          -26 callgsubr
          -283 260 -110 251 280 183 124 219 29 callgsubr
          -23 callgsubr
          237 -204 128 -284 -259 -191 -141 -208 30 callgsubr
          endchar
        </CharString>
        <CharString name="T">
          148 21 -21 1194 -7 callgsubr
          473 -36 callsubr
          1239 -29 callgsubr
          -1200 -262 434 -1194 325 1194 441 hlineto
          endchar
        </CharString>
        <CharString name="T.smcp">
          -15 21 -21 913 -69 callgsubr
          396 7 callgsubr
          1084 -19 callsubr
          -1053 -252 365 -913 314 913 374 hlineto
          endchar
        </CharString>
        <CharString name="Thorn">
          125 21 -21 281 252 411 251 261 -20 hstem
          125 313 446 -41 callgsubr
          649 1195 rmoveto
          -211 261 -313 -56 callsubr
          313 281 211 hlineto
          355 193 191 266 267 -193 190 -355 hvcurveto
          -662 vmoveto
          -211 411 211 hlineto
          169 66 -99 -109 -106 -66 -97 -169 hvcurveto
          endchar
        </CharString>
        <CharString name="Thorn.smcp">
          -81 21 -21 217 251 291 -32 callsubr
          295 20 callgsubr
          521 1011 rmoveto
          -117 154 -313 -27 callgsubr
          217 117 hlineto
          303 186 164 236 227 -186 167 -303 hvcurveto
          -543 vmoveto
          -117 291 117 hlineto
          121 57 -67 -77 -83 -57 -64 -121 hvcurveto
          endchar
        </CharString>
        <CharString name="U">
          -43 callgsubr
          -51 callsubr
          1242 1456 -97 callsubr
        </CharString>
        <CharString name="U.smcp">
          42 8 callgsubr
          31 callsubr
          1082 1165 -97 callgsubr
        </CharString>
        <CharString name="Uacute">
          -43 callgsubr
          98 312 -51 callsubr
          714 1846 rmoveto
          -92 callgsubr
          278 312 rlineto
          193 -390 -97 callsubr
        </CharString>
        <CharString name="Uacute.smcp">
          -15 callsubr
          622 1566 rmoveto
          -92 callgsubr
          278 312 rlineto
          125 -401 -97 callgsubr
        </CharString>
        <CharString name="Ucircumflex">
          -43 callgsubr
          117 13 -51 callsubr
          1076 1566 rmoveto
          -100 callgsubr
          156 138 157 -138 rlineto
          247 hlineto
          166 -97 -97 callsubr
        </CharString>
        <CharString name="Ucircumflex.smcp">
          42 8 callgsubr
          1038 13 31 callsubr
          984 1286 rmoveto
          -100 callgsubr
          156 138 157 -138 rlineto
          247 hlineto
          98 -108 -97 callgsubr
        </CharString>
        <CharString name="Udieresis">
          -43 callgsubr
          108 262 -51 callsubr
          419 1806 -103 callsubr
          320 -350 -97 callsubr
        </CharString>
        <CharString name="Udieresis.smcp">
          42 8 callgsubr
          1029 262 31 callsubr
          327 1526 -103 callsubr
          252 -361 -97 callgsubr
        </CharString>
        <CharString name="Ugrave">
          -43 callgsubr
          98 312 -51 callsubr
          847 1534 -98 callgsubr
          649 -78 -97 callsubr
        </CharString>
        <CharString name="Ugrave.smcp">
          -15 callsubr
          755 1254 -98 callgsubr
          581 -89 -97 callgsubr
        </CharString>
        <CharString name="V">
          215 -80 callsubr
          hstem
          2 1343 vstem
          983 -29 callgsubr
          -311 -1071 -310 1071 rlineto
          -360 hlineto
          497 -56 callsubr
          rlineto
          346 hlineto
          500 -74 callgsubr
          rlineto
          endchar
        </CharString>
        <CharString name="V.smcp">
          36 -18 callgsubr
          -7 1180 vstem
          846 -19 callsubr
          -257 -844 -7 -37 -8 40 -254 841 rlineto
          -327 hlineto
          417 -1165 rlineto
          345 hlineto
          418 -43 callsubr
          rlineto
          endchar
        </CharString>
        <CharString name="W">
          655 -80 callsubr
          hstem
          29 1727 vstem
          1435 -29 callgsubr
          -182 -995 -223 995 rlineto
          -275 hlineto
          -221 -993 -183 993 rlineto
          -322 hlineto
          317 -56 callsubr
          rlineto
          331 hlineto
          215 921 217 -921 rlineto
          331 hlineto
          316 -74 callgsubr
          rlineto
          endchar
        </CharString>
        <CharString name="W.smcp">
          397 -18 callgsubr
          27 1467 vstem
          1196 -19 callsubr
          -134 -748 -165 748 rlineto
          -274 hlineto
          -161 -749 -135 749 rlineto
          -300 hlineto
          264 -1165 rlineto
          314 hlineto
          154 681 159 -681 rlineto
          314 hlineto
          262 -43 callsubr
          rlineto
          endchar
        </CharString>
        <CharString name="X">
          174 -80 callsubr
          hstem
          14 1277 vstem
          653 967 rmoveto
          -257 489 rlineto
          -371 hlineto
          416 -722 -427 -734 rlineto
          375 hlineto
          264 498 263 -498 rlineto
          375 hlineto
          -426 734 415 722 rlineto
          -371 hlineto
          endchar
        </CharString>
        <CharString name="X.smcp">
          -4 -18 callgsubr
          -5 1131 vstem
          547 803 rmoveto
          -186 362 rlineto
          -356 hlineto
          350 -578 -360 -587 rlineto
          359 hlineto
          197 369 206 -369 rlineto
          369 hlineto
          -381 587 349 578 rlineto
          -358 hlineto
          endchar
        </CharString>
        <CharString name="Y">
          145 -80 callsubr
          hstem
          473 329 vstem
          638 817 -46 callgsubr
        </CharString>
        <CharString name="Y.smcp">
          -21 -18 callgsubr
          395 -41 callgsubr
          1116 1165 -44 callsubr
        </CharString>
        <CharString name="Yacute">
          145 -80 callsubr
          98 -39 callsubr
          473 329 vstem
          681 1846 rmoveto
          -92 callgsubr
          278 312 rlineto
          -378 -1029 -46 callgsubr
        </CharString>
        <CharString name="Yacute.smcp">
          -21 21 -21 1254 -39 callsubr
          395 -41 callgsubr
          918 1566 rmoveto
          -335 hlineto
          -92 callgsubr
          476 -89 -44 callsubr
        </CharString>
        <CharString name="Z">
          114 0 261 933 -7 callgsubr
          69 1122 vstem
          480 261 rmoveto
          699 1018 rlineto
          177 -1110 -262 706 vlineto
          -705 -1012 rlineto
          -182 1121 261 vlineto
          endchar
        </CharString>
        <CharString name="Z.smcp">
          -54 0 251 662 -69 callgsubr
          50 987 vstem
          470 251 rmoveto
          562 760 rlineto
          154 -982 -252 575 vlineto
          -570 -754 rlineto
          -159 982 251 vlineto
          endchar
        </CharString>
        <CharString name="a">
          -88 callgsubr
          -33 callsubr
          hintmask 00111110
          991 270 rmoveto
          448 vlineto
          256 -188 128 -253 -285 -182 -153 -197 vhcurveto
          311 hlineto
          79 52 43 87 102 43 -60 -94 vhcurveto
          -59 -117 vlineto
          -338 -165 -132 -224 hvcurveto
          hintmask 01011110
          -191 163 -134 204 130 83 51 65 55 vhcurveto
          hintmask 00111110
          7 -37 10 -33 12 -26 rrcurveto
          314 17 hlineto
          -29 54 -16 64 135 vvcurveto
          hintmask 10011110
          -495 -56 rmoveto
          -76 -50 45 65 86 55 75 141 hvcurveto
          112 -178 hlineto
          -47 -27 -65 -46 -90 hhcurveto
          endchar
        </CharString>
        <CharString name="aacute">
          -88 callgsubr
          122 312 -33 callsubr
          hintmask 00111111
          921 14 callsubr
          rmoveto
          -335 hlineto
          -92 callgsubr
          348 -954 -106 callsubr
        </CharString>
        <CharString name="acircumflex">
          -88 callgsubr
          141 13 -33 callsubr
          hintmask 00111111
          544 1381 rmoveto
          157 -138 rlineto
          247 13 hlineto
          -100 callgsubr
          603 -973 -106 callsubr
        </CharString>
        <CharString name="acute">
          -446 1 callgsubr
          96 532 vstem
          293 14 callsubr
          rmoveto
          -197 -312 rlineto
          254 hlineto
          278 312 rlineto
          endchar
        </CharString>
        <CharString name="acutecomb">
          -1131 1 callgsubr
          -686 531 vstem
          -490 14 callsubr
          rmoveto
          -92 callgsubr
          278 312 rlineto
          endchar
        </CharString>
        <CharString name="adieresis">
          -88 callgsubr
          132 262 -33 callsubr
          hintmask 00111111
          291 1234 -103 callgsubr
          197 -964 -106 callsubr
        </CharString>
        <CharString name="ae">
          599 -20 226 -226 252 208 206 -192 199 197 -42 callgsubr
          64 312 1000 305 hintmask 00000000
          hintmask 10101010
          1681 612 rmoveto
          301 -172 189 -284 vhcurveto
          -134 1 -107 -37 -81 -64 rrcurveto
          67 -78 -111 33 -135 hhcurveto
          -291 -188 -143 -198 hvcurveto
          312 -19 rlineto
          60 59 48 105 94 52 -55 -92 vhcurveto
          hintmask 10011100
          -50 -151 vlineto
          -333 -174 -120 -210 -209 145 -134 266 185 127 66 75 72 hvcurveto
          -89 88 129 -52 167 hhcurveto
          178 154 61 60 75 hvcurveto
          hintmask 01101010
          -79 201 rlineto
          -39 -80 -75 -31 -136 hhcurveto
          -162 -76 86 122 -15 hvcurveto
          654 hlineto
          -305 206 rmoveto
          -347 hlineto
          122 16 55 82 125 hhcurveto
          101 50 -68 -110 hvcurveto
          hintmask 10011100
          -1000 -353 rmoveto
          70 68 65 129 vhcurveto
          149 -178 hlineto
          -39 -47 -75 -31 -66 hhcurveto
          -108 -50 44 69 hvcurveto
          endchar
        </CharString>
        <CharString name="agrave">
          -88 callgsubr
          122 312 -33 callsubr
          hintmask 00111111
          719 6 callsubr
          -98 callgsubr
          526 -954 -106 callsubr
        </CharString>
        <CharString name="alpha">
          23 -54 callgsubr
          -232 -21 22 -21 870 -42 callgsubr
          68 313 343 312 hintmask 00111100
          1125 237 rmoveto
          -2 -4 -5 -1 -10 hhcurveto
          -45 -25 32 98 hvcurveto
          718 -272 vlineto
          -22 -128 rlineto
          92 -59 -80 56 -112 hhcurveto
          -275 -148 -235 -330 20 callsubr
          -314 148 -222 273 125 86 64 104 60 vhcurveto
          hintmask 01011100
          -115 50 91 -54 124 hhcurveto
          46 35 3 19 44 hvcurveto
          hintmask 10011100
          -583 231 rmoveto
          -141 -45 119 10 callsubr
          74 49 -32 -56 32 vhcurveto
          -453 vlineto
          -50 -32 -50 -27 -75 hhcurveto
          endchar
        </CharString>
        <CharString name="alpha.alt">
          59 -21 252 -210 -16 callgsubr
          68 313 hintmask 01110000
          1116 hmoveto
          -115 540 108 542 rlineto
          -271 hlineto
          -22 -157 rlineto
          109 -67 -97 68 -143 hhcurveto
          -287 -154 -235 -330 20 callsubr
          hintmask 10110000
          -314 155 -223 284 148 99 67 108 67 vhcurveto
          hintmask 01110000
          24 -154 rlineto
          -85 487 rmoveto
          hintmask 10110000
          -133 -3 -52 -123 -138 hhcurveto
          -141 -45 120 10 callsubr
          136 52 -135 -154 3 vhcurveto
          endchar
        </CharString>
        <CharString name="ampersand">
          230 -21 252 -231 -21 42 -21 1225 252 0 -20 hstemhm
          64 313 -313 1269 -1142 275 251 254 hintmask 0010101000000000
          1333 hmoveto
          -220 254 rlineto
          95 127 38 163 180 vvcurveto
          -264 hlineto
          -94 -22 -85 -37 -72 vhcurveto
          -235 272 89 63 rlineto
          hintmask 0010100110000000
          113 80 81 108 134 vvcurveto
          187 -147 160 -229 -245 -159 -160 -230 -109 51 -98 82 -114 vhcurveto
          hintmask 0100110000000000
          -153 -109 -107 -96 -170 vvcurveto
          -241 182 -171 294 144 115 33 69 112 vhcurveto
          hintmask 0011000110000000
          71 -81 rlineto
          -388 1225 rmoveto
          78 45 -60 -57 -49 -15 -47 -83 -54 hvcurveto
          -71 -46 rlineto
          -50 65 -32 57 57 vvcurveto
          74 43 60 85 vhcurveto
          hintmask 1000110000000000
          -35 -994 rmoveto
          -105 -77 74 107 58 15 52 59 55 hvcurveto
          16 11 271 -310 rlineto
          -30 -56 -61 -17 -62 hhcurveto
          endchar
        </CharString>
        <CharString name="ampersand.smcp">
          227 -21 250 -229 -21 42 -21 947 234 hstemhm
          83 1182 -1086 263 210 267 hintmask 00111000
          1265 hmoveto
          -198 195 rlineto
          76 86 50 114 162 vvcurveto
          -264 hlineto
          -68 -17 -61 -32 -50 vhcurveto
          -195 192 51 32 rlineto
          hintmask 01010110
          105 67 78 90 111 vvcurveto
          193 -147 118 -230 -233 -130 -143 -148 -118 52 -76 86 -90 vhcurveto
          -20 -12 rlineto
          -133 -82 -81 -80 -133 vvcurveto
          -186 176 -134 283 117 117 24 48 102 vhcurveto
          hintmask 00110110
          51 -51 rlineto
          -487 856 rmoveto
          50 35 41 70 66 39 -39 -38 -38 -12 -26 -84 -52 vhcurveto
          -36 -22 rlineto
          -46 47 -32 37 40 vvcurveto
          hintmask 10011000
          102 -627 rmoveto
          -93 -56 38 65 30 14 34 54 34 hvcurveto
          19 12 199 -197 rlineto
          -10 -41 -45 -6 -51 hhcurveto
          endchar
        </CharString>
        <CharString name="aring">
          -88 callgsubr
          118 95 212 96 13 callgsubr
          -48 2 callgsubr
          -92 313 hintmask 0011111011000000
          546 1220 -87 callgsubr
          hintmask 0101111100100000
          445 -1257 rmoveto
          448 vlineto
          256 -188 128 -253 -285 -182 -153 -197 vhcurveto
          311 hlineto
          79 52 43 87 102 43 -60 -94 vhcurveto
          -59 -117 vlineto
          -338 -165 -132 -224 -191 163 -134 204 130 83 51 65 55 hvcurveto
          hintmask 0011111010100000
          7 -37 10 -33 12 -26 rrcurveto
          314 17 hlineto
          hintmask 0101111100100000
          -29 54 -16 64 135 vvcurveto
          hintmask 1001111100100000
          -495 -56 rmoveto
          -76 -50 45 65 86 55 75 141 hvcurveto
          112 -178 hlineto
          -47 -27 -65 -46 -90 hhcurveto
          endchar
        </CharString>
        <CharString name="asciicircum">
          -225 3 callgsubr
          41 826 vstem
          867 729 rmoveto
          -299 727 rlineto
          -228 hlineto
          -299 -727 rlineto
          241 hlineto
          172 453 173 -453 rlineto
          endchar
        </CharString>
        <CharString name="asciitilde">
          182 370 253 -42 -42 callgsubr
          101 226 -226 1109 -226 226 hintmask 00000000
          hintmask 10001000
          1210 797 rmoveto
          -226 1 rlineto
          -98 -52 -77 -74 -50 -45 28 53 -54 vhcurveto
          hintmask 01100000
          87 -88 -84 42 -105 hhcurveto
          -195 -136 -155 -267 hvcurveto
          226 -3 rlineto
          97 49 76 75 53 44 -28 -53 54 vhcurveto
          hintmask 10010000
          -91 94 74 -39 106 hhcurveto
          hintmask 10001000
          196 138 163 264 hvcurveto
          endchar
        </CharString>
        <CharString name="asterisk">
          -191 1225 -20 251 -20 hstem
          392 182.5 vstem
          347 958 rmoveto
          -222 -272 165 -111 183 283 182 -293 165 116 -214 265 325 90 -62 189 -306 -127 23 358 rlineto
          -205 hlineto
          22 -351 -314 129 -62 -186 rlineto
          endchar
        </CharString>
        <CharString name="at">
          703 -453 185 247 171 -167 187 634 186 253 169 hstemhm
          76 208 224.83 235.66 816.51 189 hintmask 11011111
          964 1412 rmoveto
          -526 -338 -405 -547 -24 hvcurveto
          -598 -22 303 -315 534 hhcurveto
          124 156 29 60 93 hvcurveto
          -38 162 rlineto
          -37 -84 -131 -29 -116 hhcurveto
          -407 -226 246 482 22 hvcurveto
          446 21 248 337 407 hhcurveto
          431 191 -283 -423 -21 hvcurveto
          -219 -7 -84 -168 -123 hhcurveto
          -56 -59 29 117 14 hvcurveto
          51 584 rlineto
          57 -82 -73 53 -157 hhcurveto
          -242 -192 -217 -339 -39 hvcurveto
          hintmask 10111111
          -273 -26 122 -178 194 hhcurveto
          107 90 46 90 66 hvcurveto
          hintmask 11011111
          -89 44 87 -51 111 hhcurveto
          308 125 287 280 10 hvcurveto
          516 22 -284 350 -524 hhcurveto
          hintmask 10111111
          -89 -1242 rmoveto
          -97 -45 91 173 14 hvcurveto
          240 25 77 130 155 hhcurveto
          26 25 -4 -6 21 hvcurveto
          -40 -459 rlineto
          -135 -45 -70 -30 -46 hhcurveto
          endchar
        </CharString>
        <CharString name="atilde">
          -88 callgsubr
          153 -62 callgsubr
          58 312 -208 177 339 313 -242 176 hintmask 0011001011000000
          420 1339 rmoveto
          hintmask 0011010010100000
          -83 callsubr
          hintmask 0011001011000000
          -47 callsubr
          -95 callgsubr
          571 -1069 rmoveto
          448 vlineto
          hintmask 0101101101000000
          256 -188 128 -253 -285 -182 -153 -197 vhcurveto
          311 hlineto
          79 52 43 87 102 43 -60 -94 vhcurveto
          -59 -117 vlineto
          -338 -165 -132 -224 -191 163 -134 204 130 83 51 65 55 hvcurveto
          hintmask 0011001011000000
          7 -37 10 -33 12 -26 rrcurveto
          314 17 hlineto
          -29 54 -16 64 135 vvcurveto
          hintmask 1001001101000000
          -495 -56 rmoveto
          -76 -50 45 65 86 55 75 141 hvcurveto
          112 -178 hlineto
          -47 -27 -65 -46 -90 hhcurveto
          endchar
        </CharString>
        <CharString name="b">
          22 -10 callgsubr
          364 9 callgsubr
          -42 -70 27 callsubr
          280 vlineto
          14 115 rlineto
          hintmask 01011100
          -85 64 88 -50 121 hhcurveto
          285 135 226 326 hvcurveto
          21 vlineto
          hintmask 00111100
          318 -135 231 -287 vhcurveto
          111 -570 rmoveto
          hintmask 10011100
          -177 -33 -124 -154 -91 -55 35 64 -31 vhcurveto
          421 vlineto
          63 31 55 36 89 hhcurveto
          153 36 -136 -161 hvcurveto
          endchar
        </CharString>
        <CharString name="b.ss06">
          42 -10 callgsubr
          384 9 callgsubr
          -41 -71 27 callsubr
          270 vlineto
          19 121 rlineto
          hintmask 01011100
          -87 65 89 -54 124 hhcurveto
          285 155 234 315 hvcurveto
          21 vlineto
          hintmask 00111100
          329 -155 223 -287 vhcurveto
          131 -573 rmoveto
          hintmask 10011100
          -166 -53 -132 -154 -85 -58 33 56 -34 vhcurveto
          442 vlineto
          58 34 57 30 84 hhcurveto
          153 56 -128 -172 hvcurveto
          endchar
        </CharString>
        <CharString name="backslash">
          -262 3 callgsubr
          -10 930 vstem
          -10 -29 callgsubr
          608 -1581 rlineto
          322 hlineto
          -608 1581 rlineto
          endchar
        </CharString>
        <CharString name="bar">
          -610 3 callgsubr
          173 179 vstem
          352 -270 rmoveto
          1726 -179 -1726 vlineto
          endchar
        </CharString>
        <CharString name="braceleft">
          -460 -360 1957 -1089 221 hstemhm
          215 275 hintmask 10100000
          490 106 rmoveto
          203 vlineto
          132 -55 115 -126 63 vhcurveto
          126 63 55 115 132 vvcurveto
          203 vlineto
          138 32 114 112 42 vhcurveto
          -59 171 rlineto
          -275 -77 -85 -178 -210 vvcurveto
          -203 vlineto
          hintmask 01100000
          -122 -50 -78 -120 vhcurveto
          -221 vlineto
          120 50 -78 -121 hvcurveto
          -203 vlineto
          -210 85 -179 275 -77 vhcurveto
          59 172 rlineto
          hintmask 10100000
          -112 42 -32 114 138 vvcurveto
          endchar
        </CharString>
        <CharString name="braceright">
          -460 508 221 hstemhm
          182 275 hintmask 00000000
          hintmask 11000000
          457 929 rmoveto
          203 vlineto
          210 -85 178 -275 77 vhcurveto
          -59 -171 rlineto
          112 -42 32 -114 -138 vvcurveto
          -203 vlineto
          -134 56 -114 128 -62 vhcurveto
          -128 -62 -56 -114 -134 vvcurveto
          -203 vlineto
          -138 -32 -114 -112 -42 vhcurveto
          59 -172 rlineto
          275 77 85 179 210 vvcurveto
          203 vlineto
          121 50 78 120 vhcurveto
          221 vlineto
          -120 -50 78 122 hvcurveto
          endchar
        </CharString>
        <CharString name="bracketleft">
          9 callsubr
          115 -46 callsubr
          558 1464 rmoveto
          239 -443 -2049 443 238 -131 1572 vlineto
          endchar
        </CharString>
        <CharString name="bracketright">
          9 callsubr
          146 -46 callsubr
          14 1703 rmoveto
          -239 132 -1572 -132 -238 444 2049 vlineto
          endchar
        </CharString>
        <CharString name="brokenbar">
          -611 3 callgsubr
          124 275 vstem
          399 698 rmoveto
          758 -275 -758 vlineto
          -968 vmoveto
          275 795 -275 hlineto
          endchar
        </CharString>
        <CharString name="bullet">
          -384 492 510 hstem
          135 490 vstem
          135 764 rmoveto
          -37 vlineto
          -138 96 -97 150 152 92 97 138 vhcurveto
          37 vlineto
          139 -92 99 -154 -148 -96 -99 -139 vhcurveto
          endchar
        </CharString>
        <CharString name="c">
          -64 -1 callsubr
          60 -46 callsubr
          723 382 rmoveto
          -93 -1 -65 -57 -100 hhcurveto
          -74 callsubr
          271 -1 -185 160 -268 hhcurveto
          -335 -167 -238 -311 hvcurveto
          -25 vlineto
          -311 167 -237 336 255 197 163 239 1 vhcurveto
          endchar
        </CharString>
        <CharString name="c.ss06">
          -31 -1 callsubr
          63 -46 callsubr
          753 382 rmoveto
          -93 -3 -71 -57 -101 hhcurveto
          -157 -46 134 162 hvcurveto
          25 vlineto
          158 47 139 154 111 63 -79 -100 3 vhcurveto
          293 hlineto
          271 -7 -188 160 -268 hhcurveto
          -335 -185 -238 -311 hvcurveto
          -25 vlineto
          -311 185 -237 336 255 200 163 239 7 vhcurveto
          endchar
        </CharString>
        <CharString name="ccedilla">
          -64 -470 180 302 -21 22 -21 858 -42 callgsubr
          8 callsubr
          181 267 hintmask 10111100
          557 232 rmoveto
          -74 callsubr
          271 -1 -185 160 -268 hhcurveto
          -335 -167 -238 -311 hvcurveto
          -25 vlineto
          hintmask 11011100
          -271 127 -215 255 -51 vhcurveto
          -27 -128 rlineto
          -81 callgsubr
          hvcurveto
          hintmask 10111100
          0 callsubr
          vhcurveto
          8 44 197 41 140 147 1 202 rlinecurve
          18 callsubr
        </CharString>
        <CharString name="cedilla">
          -572 -469 180 238 60 hstemhm
          93 405 -267 267 hintmask 11100000
          359 9 rmoveto
          -235 hlineto
          -31 -145 rlineto
          hintmask 11010000
          -81 callgsubr
          0 callsubr
          hvcurveto
          endchar
        </CharString>
        <CharString name="cent">
          63 8 -21 23 -21 hstemhm
          99 312 94 200 hintmask 01110000
          596 232 rmoveto
          -74 callsubr
          -1 234 -138 152 -211 36 rrcurveto
          225 -200 -223 vlineto
          -271 -42 -135 -220 -280 vvcurveto
          -25 vlineto
          hintmask 10110000
          -279 135 -220 271 -42 vhcurveto
          -232 200 vlineto
          hintmask 01110000
          234 vlineto
          203 38 146 149 1 206 rrcurveto
          18 callsubr
        </CharString>
        <CharString name="circumflex">
          -107 1243 13 hstem
          112 801 vstem
          913 1256 rmoveto
          -100 callgsubr
          156 138 157 -138 rlineto
          247 hlineto
          endchar
        </CharString>
        <CharString name="colon">
          -536 10 -21 hstem
          121 348 vstem
          295 1123 -51 callgsubr
          -805 vmoveto
          -88 callsubr
          endchar
        </CharString>
        <CharString name="comma">
          -606 -384 636 hstem
          145 255 vstem
          400 43 -49 callsubr
        </CharString>
        <CharString name="copyright">
          477 -20 125 177 135 623 135 176 125 hstem
          86 122 225 155 373 156 266 123 vstem
          -85 callsubr
          321 491 rmoveto
          -156 hlineto
          -130 -61 -49 -118 -128 -66 103 149 vhcurveto
          120 vlineto
          147 66 104 128 118 62 -51 -128 vhcurveto
          156 hlineto
          209 -130 105 -206 -215 -134 -158 -229 vhcurveto
          -119 vlineto
          -230 134 -157 215 206 129 104 210 vhcurveto
          endchar
        </CharString>
        <CharString name="crossbar">
          -140 651 188 hstem
          140 714 vstem
          854 651 rmoveto
          188 -714 -188 vlineto
          endchar
        </CharString>
        <CharString name="currency">
          277 -20 192 871 191 hstem
          111 186 819 185 vstem
          1301 608 rmoveto
          137 -39 124 -67 101 vhcurveto
          147 150 -142 145 -144 -148 rlineto
          74 -98 -121 43 -130 hhcurveto
          -130 -120 -42 -73 -98 hvcurveto
          -142 145 -141 -144 144 -147 rlineto
          -69 -102 -40 -125 -138 vvcurveto
          -132 37 -121 64 -99 vhcurveto
          -136 -138 141 -144 129 132 rlineto
          -80 100 125 -46 136 hhcurveto
          136 125 47 81 101 hvcurveto
          131 -135 142 145 -139 141 rlineto
          62 99 36 120 130 vvcurveto
          -594 -436 rmoveto
          -228 -182 190 246 246 182 189 228 226 183 -189 -246 -246 -183 -190 -226 hvcurveto
          endchar
        </CharString>
        <CharString name="d">
          23 5 callgsubr
          8 callsubr
          363 313 hintmask 00111100
          735 37 callgsubr
          -63 -83 43 -106 hhcurveto
          -273 -150 -224 -329 20 callsubr
          hintmask 01011100
          -315 150 -233 271 117 88 52 84 66 vhcurveto
          hintmask 00111100
          15 -116 rlineto
          281 -4 callgsubr
          -47 130 -38 callsubr
          51 129 139 84 57 -36 -67 32 vhcurveto
          -412 vlineto
          -65 -33 -57 -38 -85 hhcurveto
          endchar
        </CharString>
        <CharString name="d.ss06">
          45 5 callgsubr
          63 311 384 313 hintmask 00111100
          758 37 callgsubr
          -64 -83 43 -106 hhcurveto
          -272 -170 -222 -329 20 callsubr
          hintmask 01011100
          -315 170 -235 270 119 91 55 88 66 vhcurveto
          hintmask 00111100
          21 -123 rlineto
          271 -4 callgsubr
          -68 132 -38 callsubr
          71 127 140 79 58 -32 -60 36 vhcurveto
          -432 vlineto
          -59 -36 -59 -35 -80 hhcurveto
          endchar
        </CharString>
        <CharString name="degree">
          -327 921 152 252 151 hstem
          126 151 247 150 vstem
          402 1476 rmoveto
          -151 -125 -126 -153 -153 125 -123 151 150 122 123 153 153 -122 126 -150 hvcurveto
          -403 vmoveto
          -68 -57 53 71 73 57 55 68 69 53 -55 -73 -72 -53 -52 -69 hvcurveto
          endchar
        </CharString>
        <CharString name="dieresis">
          -148 1234 -7 callgsubr
          95 791 vstem
          239 1496 -103 callsubr
          endchar
        </CharString>
        <CharString name="divide">
          36 566 239 hstem
          62 1035 vstem
          580 1247 -18 callsubr
          517 -681 rmoveto
          239 -1035 -239 vlineto
          518 -129 -18 callsubr
          endchar
        </CharString>
        <CharString name="dollar">
          50 4 -21 1487 -20 24 -20 hstemhm
          88 312 -258 312 75 159 -139 159 68 312 hintmask 10101011
          647 863 rmoveto
          -148 61 -45 50 93 vvcurveto
          90 47 72 110 100 69 -68 -155 vhcurveto
          312 hlineto
          hintmask 11001011
          264 -151 166 -233 34 vhcurveto
          216 -159 vlineto
          hintmask 10101011
          -212 vlineto
          -244 -24 -163 -153 -228 vvcurveto
          -269 180 -98 263 -104 vhcurveto
          139 -55 52 -48 -110 vvcurveto
          -88 -55 -70 -114 vhcurveto
          hintmask 10110101
          -106 -101 55 182 hvcurveto
          -312 hlineto
          -326 216 -131 225 -24 vhcurveto
          -200 159 200 vlineto
          241 26 159 143 235 vvcurveto
          hintmask 10101011
          267 -182 101 -259 108 vhcurveto
          endchar
        </CharString>
        <CharString name="dollar.smcp">
          -23 9 -21 hstem
          97 293 99 160 88 294 vstem
          589 716 rmoveto
          -23 callgsubr
          208 -156 123 -230 28 vhcurveto
          220 -160 -216 vlineto
          -229 -20 -163 -135 -192 vvcurveto
          30 callgsubr
          -26 callgsubr
          -253 208 -115 224 -21 vhcurveto
          -225 160 225 vlineto
          234 22 148 120 197 vvcurveto
          29 callgsubr
          endchar
        </CharString>
        <CharString name="dotlessi">
          -559 -18 callgsubr
          129 -41 callgsubr
          442 hmoveto
          -49 callgsubr
        </CharString>
        <CharString name="e">
          -73 callsubr
          hstemhm
          758 306 12 callgsubr
          1064 572 -105 callgsubr
        </CharString>
        <CharString name="e.ss07">
          -73 callsubr
          hstemhm
          758 306 12 callgsubr
          1064 575 rmoveto
          321 -174 206 -310 -327 -186 -239 -318 vhcurveto
          -39 vlineto
          -294 214 -232 346 176 136 51 50 78 vhcurveto
          -55 218 rlineto
          -39 -75 -117 -28 -96 hhcurveto
          -177 -90 81 126 -22 hvcurveto
          679 hlineto
          -306 207 rmoveto
          -372 hlineto
          119 19 57 85 118 hhcurveto
          126 52 -69 -109 hvcurveto
          endchar
        </CharString>
        <CharString name="eacute">
          -73 callsubr
          123 312 -34 callsubr
          916 1537 rmoveto
          -335 hlineto
          -92 callgsubr
          hintmask 11110100
          426 -653 -105 callgsubr
        </CharString>
        <CharString name="ecircumflex">
          -73 callsubr
          142 13 -34 callsubr
          539 1382 rmoveto
          157 -138 rlineto
          247 13 hlineto
          -100 callgsubr
          hintmask 11110100
          681 -672 -105 callgsubr
        </CharString>
        <CharString name="edieresis">
          -73 callsubr
          133 262 -34 callsubr
          286 1235 -103 callgsubr
          hintmask 11110100
          275 -663 -105 callgsubr
        </CharString>
        <CharString name="egrave">
          -73 callsubr
          123 312 -34 callsubr
          714 1225 -98 callgsubr
          hintmask 11110100
          604 -653 -105 callgsubr
        </CharString>
        <CharString name="eight">
          -96 callgsubr
        </CharString>
        <CharString name="eight.frac">
          653 -89 callsubr
          1071 -105 callsubr
        </CharString>
        <CharString name="eight.smcp">
          -61 8 callgsubr
          695 -69 callgsubr
          74 921 vstem
          806 600 rmoveto
          101 53 60 86 111 vvcurveto
          219 -178 113 -255 -250 -183 -113 -219 -111 62 -86 102 -52 vhcurveto
          -117 -54 -74 -94 -130 vvcurveto
          -228 199 -111 263 266 193 111 228 130 -73 94 -116 53 vhcurveto
          -272 330 rmoveto
          82 39 -35 -66 -65 -37 -45 -82 -81 -41 45 65 65 42 36 78 hvcurveto
          2 -695 rmoveto
          -88 -61 46 74 77 61 36 86 88 62 -36 -77 -74 -60 -46 -88 hvcurveto
          endchar
        </CharString>
        <CharString name="eight.sup">
          -11 -89 callsubr
          407 -105 callsubr
        </CharString>
        <CharString name="eight.tnum">
          -96 callgsubr
        </CharString>
        <CharString name="ellipsis">
          418 -11 329 hstemhm
          131 1304 hintmask 00000000
          hintmask 11000000
          305 318 -51 callgsubr
          481 hmoveto
          -88 callsubr
          475 hmoveto
          -88 callsubr
          endchar
        </CharString>
        <CharString name="emdash">
          422 584 255 hstem
          99 1392 vstem
          1491 584 rmoveto
          255 -1392 -255 vlineto
          endchar
        </CharString>
        <CharString name="endash">
          150 584 255 hstem
          149 1044 vstem
          1193 584 rmoveto
          255 -1044 -255 vlineto
          endchar
        </CharString>
        <CharString name="equal">
          54 292 253 25 callsubr
          hstem
          133 909 vstem
          1042 730 rmoveto
          252 -909 -252 vlineto
          909 -438 rmoveto
          253 -909 -253 vlineto
          endchar
        </CharString>
        <CharString name="eth">
          42 -54 callgsubr
          496 235 hstem
          75 312 415 -46 callsubr
          857 1306 rmoveto
          132 83 -77 116 -166 -104 -118 86 -142 60 -157 32 rlinecurve
          -99 -238 88 -22 87 -34 78 -48 rlinecurve
          -143 -89 78 -117 184 116 71 -67 57 -83 35 -103 rlinecurve
          44 -66 -81 25 -90 hhcurveto
          -291 -162 -198 -297 -272 204 -216 305 306 224 247 361 hvcurveto
          66 vlineto
          267 -96 223 -161 162 vhcurveto
          -269 -1074 rmoveto
          -127 -74 102 134 161 69 99 141 101 68 -33 -40 36 hvcurveto
          -103 vlineto
          -183 -71 -137 -143 vhcurveto
          endchar
        </CharString>
        <CharString name="exclam">
          -570 3 -21 1474 -20 hstem
          142 294 vstem
          417 457 rmoveto
          38 999 rlineto
          -332 hlineto
          38 -999 rlineto
          127 -146 rmoveto
          -104 -70 -71 -93 -94 70 -71 104 104 70 71 94 93 -70 71 -104 hvcurveto
          endchar
        </CharString>
        <CharString name="exclamdown">
          -535 -371 1473 hstem
          152 294 vstem
          300 774 -17 callgsubr
          -129 -146 rmoveto
          -38 -999 rlineto
          332 hlineto
          -38 999 rlineto
          endchar
        </CharString>
        <CharString name="f">
          -393 -61 callsubr
          vstem
          651 1305 rmoveto
          2 callsubr
          hvcurveto
          -87 callsubr
          213 227 -213 24 callsubr
          vhcurveto
          endchar
        </CharString>
        <CharString name="f_f">
          345 -61 callsubr
          425 -41 callgsubr
          180 1172 rmoveto
          -90 -63 callgsubr
          213 227 -213 24 callsubr
          2 callsubr
          vhcurveto
          240 vlineto
          12 -47 -50 9 -55 hhcurveto
          -249 -157 -135 -250 hvcurveto
          1209 133 rmoveto
          2 callsubr
          hvcurveto
          -87 callsubr
          213 227 -213 24 callsubr
          vhcurveto
          endchar
        </CharString>
        <CharString name="f_f_i">
          807 22 callsubr
          -252 -42 callgsubr
          180 313 350 312 350 312 hintmask 11101110
          1155 1115 rmoveto
          111 70 -5 callsubr
          -118 -105 -3 callsubr
          -350 90 vlineto
          hintmask 11011110
          86 57 47 101 2 callsubr
          vhcurveto
          -87 callsubr
          350 -855 312 855 212 227 -212 vlineto
          350 hmoveto
          -1082 312 1082 vlineto
          endchar
        </CharString>
        <CharString name="f_f_l">
          807 -61 callsubr
          350 312 350 -46 callsubr
          1306 1557 rmoveto
          -293 -170 -142 -261 hvcurveto
          -72 -350 24 callsubr
          2 callsubr
          vhcurveto
          -87 callsubr
          350 -855 312 855 213 227 -213 72 vlineto
          97 70 54 126 50 51 -3 -5 53 vhcurveto
          -1297 312 1533 vlineto
          10 -141 -246 14 -124 hhcurveto
          endchar
        </CharString>
        <CharString name="f_l">
          145 -61 callsubr
          350 -46 callsubr
          644 1557 rmoveto
          -293 -171 -142 -261 hvcurveto
          -72 -63 callgsubr
          213 227 -213 72 vlineto
          97 70 54 126 50 51 -3 -5 53 vhcurveto
          -1297 312 1533 vlineto
          10 -141 -246 14 -124 hhcurveto
          endchar
        </CharString>
        <CharString name="fi">
          142 22 callsubr
          hstem
          178 313 349 -41 callgsubr
          491 1115 rmoveto
          111 69 -5 callsubr
          -117 -106 -3 callsubr
          -159 -227 159 -855 313 855 212 227 -212 vlineto
          349 hmoveto
          -1082 313 1082 vlineto
          endchar
        </CharString>
        <CharString name="five">
          50 -54 callgsubr
          498 228 243 255 hstemhm
          94 1000 -312 312 hintmask 11110000
          127 713 rmoveto
          248 -61 rlineto
          36 33 51 42 102 hhcurveto
          hintmask 11101000
          153 68 -94 -146 -141 -47 -117 -141 -108 -72 69 110 -9 hvcurveto
          -311 hlineto
          -268 2 245 -163 255 hhcurveto
          340 158 235 254 310 -162 179 -285 -94 -84 -34 -20 -36 hvcurveto
          35 297 rlineto
          578 255 -833 hlineto
          endchar
        </CharString>
        <CharString name="five.frac">
          653 -75 callsubr
          1045 -99 callgsubr
        </CharString>
        <CharString name="five.smcp">
          -61 8 callgsubr
          321 211 153 245 hstemhm
          68 922 -312 312 hintmask 11110000
          94 562 rmoveto
          248 -61 rlineto
          18 24 44 37 98 hhcurveto
          hintmask 11101000
          115 55 -62 -99 -83 -28 -77 -118 -90 -58 24 73 -2 hvcurveto
          -314 hlineto
          -214 2 226 -134 236 hhcurveto
          313 145 204 206 238 -138 135 -261 -83 -83 -29 -10 -26 hvcurveto
          29 192 rlineto
          495 245 -748 hlineto
          endchar
        </CharString>
        <CharString name="five.sup">
          -11 -75 callsubr
          381 -99 callgsubr
        </CharString>
        <CharString name="five.tnum">
          0 endchar
        </CharString>
        <CharString name="four">
          50 21 -21 311 252 893 -20 hstem
          655 -46 callsubr
          1123 563 rmoveto
          -156 893 -313 hlineto
          -597 -946 17 -199 rlineto
          581 -311 312 311 156 hlineto
          -762 252 rmoveto
          273 434 21 36 rlineto
          -470 vlineto
          endchar
        </CharString>
        <CharString name="four.frac">
          822 174 -20 callsubr
          996 -93 callgsubr
        </CharString>
        <CharString name="four.smcp">
          -61 21 -21 234 254 hstem
          574 -46 callsubr
          1015 488 rmoveto
          -129 677 -312 -3 hlineto
          -521 -721 20 -207 rlineto
          501 -234 312 234 129 hlineto
          -665 254 rmoveto
          206 265 18 28 rlineto
          -293 vlineto
          endchar
        </CharString>
        <CharString name="four.sup">
          21 -21 158 174 -20 callsubr
          332 -93 callgsubr
        </CharString>
        <CharString name="four.tnum">
          56 endchar
        </CharString>
        <CharString name="fraction">
          -223 109 1216 hstem
          23 860 vstem
          172 109 -6 callgsubr
          endchar
        </CharString>
        <CharString name="g">
          -14 callsubr
          63 312 382 312 hintmask 10111100
          787 33 callgsubr
          -12 -99 rlineto
          75 -60 -86 44 -125 hhcurveto
          -273 -168 -224 -25 callsubr
          168 -233 28 callsubr
          -52 vlineto
          -143 -85 -82 -150 -108 -87 47 66 -60 vhcurveto
          -135 -191 rlineto
          -109 91 174 -55 138 hhcurveto
          318 216 167 300 hvcurveto
          1041 vlineto
          hintmask 11011100
          -25 callgsubr
          -65 130 -38 callsubr
          69 129 139 83 57 -30 -57 34 vhcurveto
          -444 vlineto
          -55 -34 -57 -32 -85 hhcurveto
          endchar
        </CharString>
        <CharString name="g.alt">
          -48 -438 232 207 234 106 233 354 154 hstemhm
          -13 1070 -1016 310 339 310 hintmask 11111000
          673 235 rmoveto
          -187 hlineto
          -72 -55 11 60 20 8 16 11 13 hvcurveto
          -9 45 48 -5 51 hhcurveto
          hintmask 11110110
          290 188 163 207 hvcurveto
          22 vlineto
          74 -21 66 -40 55 vhcurveto
          118 hlineto
          -2 154 rlineto
          -361 hlineto
          13 -53 -58 7 -63 hhcurveto
          -289 -190 -149 -220 hvcurveto
          -22 vlineto
          -135 81 -116 136 -65 vhcurveto
          -62 -41 -54 -58 -87 vvcurveto
          -53 16 -41 28 -31 vhcurveto
          -106 -45 -93 -82 -119 vvcurveto
          -147 178 -129 329 356 203 199 169 vhcurveto
          hintmask 11111000
          192 -140 113 -240 vhcurveto
          hintmask 11110110
          -322 498 rmoveto
          78 63 58 106 107 63 -58 -78 vhcurveto
          -22 vlineto
          -74 -61 -63 -107 -109 -62 63 74 vhcurveto
          143 -917 rmoveto
          -146 -69 56 65 41 23 35 31 18 hvcurveto
          -5 30 31 -3 33 hhcurveto
          192 hlineto
          96 28 -47 -42 -55 -70 -63 -179 hvcurveto
          endchar
        </CharString>
        <CharString name="g.ss06">
          44 -11 callsubr
          63 311 384 313 hintmask 10111100
          798 33 callgsubr
          -16 -104 rlineto
          78 -61 -88 46 -128 hhcurveto
          -273 -169 -221 -25 callsubr
          169 -236 28 callsubr
          -10 vlineto
          -181 -83 -86 -179 -93 -63 19 28 -74 vhcurveto
          -42 -223 rlineto
          -49 96 121 -17 94 hhcurveto
          333 203 182 326 hvcurveto
          1000 vlineto
          hintmask 11011100
          -25 callgsubr
          -68 133 -38 callsubr
          71 126 140 83 56 -29 -56 34 vhcurveto
          -445 vlineto
          -55 -34 -57 -33 -84 hhcurveto
          endchar
        </CharString>
        <CharString name="g.ss07">
          -14 callsubr
          8 callsubr
          363 313 hintmask 10111100
          776 33 callgsubr
          -17 -105 rlineto
          79 -61 -87 46 -128 hhcurveto
          -273 -150 -221 -25 callsubr
          150 -236 271 109 83 42 71 62 vhcurveto
          -11 vlineto
          -180 -83 -86 -178 -92 -61 18 27 -74 vhcurveto
          -42 -223 rlineto
          -48 95 119 -16 94 hhcurveto
          332 203 181 326 hvcurveto
          1001 vlineto
          hintmask 11011100
          -25 callgsubr
          -47 133 -38 callsubr
          51 126 139 88 54 -32 -62 31 vhcurveto
          -427 vlineto
          -61 -31 -55 -36 -89 hhcurveto
          endchar
        </CharString>
        <CharString name="germandbls">
          179 -54 callgsubr
          -232 33 -32 -21 41 -21 1310 251 hstemhm
          135 312 199 312 -209 310 -123 311 hintmask 0001110100000000
          447 hmoveto
          1094 vlineto
          164 60 52 92 87 63 -58 -83 vhcurveto
          hintmask 0001111000000000
          -155 -103 -13 -184 vvcurveto
          hintmask 1000110010000000
          -254 290 -45 -158 vvcurveto
          -81 -58 -47 -94 -96 -77 25 21 -42 vhcurveto
          hintmask 0100110100000000
          -56 -245 rlineto
          hintmask 0010110010000000
          -33 54 118 -20 102 hhcurveto
          299 161 145 239 hvcurveto
          hintmask 0001111000000000
          250 -289 96 124 vvcurveto
          hintmask 0001110100000000
          162 101 -5 193 vvcurveto
          248 -195 129 -236 -305 -188 -157 -304 vhcurveto
          -1100 vlineto
          endchar
        </CharString>
        <CharString name="grave">
          -445 1 callgsubr
          53 534 vstem
          587 6 callsubr
          rmoveto
          -199 312 rlineto
          -335 -79 callgsubr
          endchar
        </CharString>
        <CharString name="gravecomb">
          -1131 1 callgsubr
          -903 533 vstem
          -370 6 callsubr
          -98 callgsubr
          endchar
        </CharString>
        <CharString name="greater">
          -76 123 980 hstem
          116 875 vstem
          116 1103 rmoveto
          -297 vlineto
          562 -191 -562 -194 rlineto
          -298 vlineto
          875 362 rlineto
          256 vlineto
          endchar
        </CharString>
        <CharString name="guillemotleft">
          -93 119 799 hstem
          70 873 vstem
          543 918 -67 callgsubr
          636 399 -67 callgsubr
          endchar
        </CharString>
        <CharString name="guillemotright">
          -93 118 799 hstem
          82 875 vstem
          554 508 rmoveto
          19 vlineto
          -276 390 rlineto
          -41 callsubr
          403 799 rmoveto
          -41 callsubr
          276 390 rlineto
          19 vlineto
          endchar
        </CharString>
        <CharString name="guilsinglleft">
          -487 119 799 hstem
          108 473 vstem
          581 918 -67 callgsubr
          endchar
        </CharString>
        <CharString name="guilsinglright">
          -511 118 799 hstem
          79 472 vstem
          275 917 rmoveto
          -41 callsubr
          276 390 rlineto
          19 vlineto
          endchar
        </CharString>
        <CharString name="h">
          11 callgsubr
          hstem
          97 312 329 -41 callgsubr
          691 34 callgsubr
          -116 -96 -50 -85 -70 hvcurveto
          569 -312 -1536 312 770 vlineto
          50 32 52 30 81 hhcurveto
          104 60 -38 -135 hvcurveto
          -677 313 675 vlineto
          312 -146 115 -214 vhcurveto
          endchar
        </CharString>
        <CharString name="hyphen">
          -277 -31 callsubr
        </CharString>
        <CharString name="i">
          -578 -18 callgsubr
          120 -41 callgsubr
          275 1521 rmoveto
          -104 -69 -66 -94 -93 69 -66 104 105 69 66 93 94 -69 66 -105 hvcurveto
          158 -1521 rmoveto
          -49 callgsubr
        </CharString>
        <CharString name="iacute">
          -7 callsubr
          328 1517 rmoveto
          -92 callgsubr
          278 312 rlineto
          -221 -1517 rmoveto
          -49 callgsubr
        </CharString>
        <CharString name="icircumflex">
          -559 21 -21 6 callsubr
          13 hstem
          129 -41 callgsubr
          690 1237 rmoveto
          -100 callgsubr
          156 138 157 -138 rlineto
          247 hlineto
          -248 -1224 rmoveto
          -49 callgsubr
        </CharString>
        <CharString name="idieresis">
          -559 21 -21 1215 262 0 -20 hstemhm
          129 313 hintmask 10110000
          33 1477 rmoveto
          -81 27 callgsubr
          81 82 26 callsubr
          -82 vhcurveto
          -16 callsubr
          -82 27 callgsubr
          82 81 26 callsubr
          -81 vhcurveto
          -94 -1477 rmoveto
          -49 callgsubr
        </CharString>
        <CharString name="igrave">
          -7 callsubr
          461 1205 -98 callgsubr
          235 -1205 rmoveto
          -49 callgsubr
        </CharString>
        <CharString name="j">
          -588 -437 255 -255 1958 hstemhm
          124 312 hintmask 01100000
          274 1521 rmoveto
          -105 -69 -66 -94 -93 69 -66 105 104 70 66 93 94 -70 66 -104 hvcurveto
          162 -439 rmoveto
          -312 -1125 hlineto
          hintmask 10100000
          -95 -49 -44 -87 -33 -28 4 5 -33 vhcurveto
          -247 vlineto
          -13 53 46 -4 53 hhcurveto
          244 146 139 255 hvcurveto
          endchar
        </CharString>
        <CharString name="k">
          -24 -18 callgsubr
          105 -46 callsubr
          774 hmoveto
          358 hlineto
          -415 632 385 450 rlineto
          -374 hlineto
          -266 -319 -45 -59 rlineto
          833 -312 -1537 312 320 vlineto
          100 98 rlineto
          endchar
        </CharString>
        <CharString name="k.alt">
          -24 21 -21 436 247 hstem
          106 20 callgsubr
          757 hmoveto
          358 hlineto
          -368 588 333 494 rlineto
          -360 hlineto
          -233 -399 rlineto
          -70 853 -311 -1536 311 436 81 hlineto
          endchar
        </CharString>
        <CharString name="k.alt2">
          -33 -18 callgsubr
          106 20 callgsubr
          1112 hmoveto
          -426 577 383 505 rlineto
          -362 hlineto
          -290 -399 rlineto
          877 -311 -1560 311 464 vlineto
          327 -464 rlineto
          endchar
        </CharString>
        <CharString name="l">
          -578 -18 callgsubr
          120 -41 callgsubr
          433 hmoveto
          14 callsubr
          -313 -1536 vlineto
          endchar
        </CharString>
        <CharString name="less">
          -87 124 980 hstem
          51 872 vstem
          923 1104 rmoveto
          -872 -362 rlineto
          -256 vlineto
          872 -362 rlineto
          299 vlineto
          -559 189 559 194 rlineto
          endchar
        </CharString>
        <CharString name="logicalnot">
          -4 634 171 hstem
          761 200 vstem
          126 805 rmoveto
          -171 635 -260 200 431 vlineto
          endchar
        </CharString>
        <CharString name="longs">
          -596 21 -21 1305 -69 callgsubr
          107 -46 callsubr
          107 hmoveto
          312 1172 hlineto
          86 50 47 90 43 26 -4 -6 30 vhcurveto
          24 241 rlineto
          12 -55 -53 9 -55 hhcurveto
          -259 -153 -135 -250 hvcurveto
          endchar
        </CharString>
        <CharString name="longst">
          207 1 -21 41 -12 callgsubr
          223 -42 callgsubr
          180 312 307 312 hintmask 01111100
          1221 -11 callgsubr
          367 vlineto
          47 -133 -180 61 -206 hhcurveto
          -259 -153 -135 -250 hvcurveto
          -90 -158 -227 158 -855 312 1172 vlineto
          86 50 47 91 77 64 -15 -10 25 vhcurveto
          -198 29 callsubr
          hintmask 10111100
          -12 callsubr
          hintmask 01111100
          6 callgsubr
        </CharString>
        <CharString name="m">
          638 23 callsubr
          hstem
          105 312 311 312 311 -41 callgsubr
          1321 34 callgsubr
          -145 -107 -62 -102 -69 hvcurveto
          114 -53 -102 50 -128 hhcurveto
          -134 -104 -53 -90 -71 hvcurveto
          -10 123 rlineto
          -293 -1082 312 756 hlineto
          58 34 54 36 75 hhcurveto
          93 55 -29 -139 hvcurveto
          -682 312 722 vlineto
          23 vlineto
          64 31 54 41 79 hhcurveto
          92 55 -29 -137 hvcurveto
          -684 313 684 vlineto
          310 -138 108 -205 vhcurveto
          endchar
        </CharString>
        <CharString name="macron">
          -86 1286 171 hstem
          174 692 vstem
          866 1286 rmoveto
          171 -692 -171 vlineto
          endchar
        </CharString>
        <CharString name="minus">
          -1 584 255 hstem
          142 870 vstem
          1012 584 rmoveto
          255 -870 -255 vlineto
          endchar
        </CharString>
        <CharString name="multiply">
          -45 200 973 hstem
          60 960 vstem
          1020 994 rmoveto
          -181 179 -299 -305 -299 305 -181 -179 302 -307 -302 -308 181 -179 299 305 299 -305 181 179 -302 308 rlineto
          endchar
        </CharString>
        <CharString name="n">
          11 callgsubr
          hstem
          98 311 329 -41 callgsubr
          710 1102 -72 callsubr
        </CharString>
        <CharString name="nine">
          50 -18 261 224 236 522 -69 callgsubr
          84 311 375 20 callgsubr
          581 1477 rmoveto
          -298 -199 -235 -284 -290 156 -201 270 98 90 41 63 68 hvcurveto
          -227 -26 -149 -101 -268 hhcurveto
          -20 -261 25 hlineto
          466 287 284 504 hvcurveto
          111 vlineto
          375 -210 221 -290 vhcurveto
          10 -774 rmoveto
          -132 -64 113 143 132 66 134 118 112 79 -92 -192 hvcurveto
          -129 vlineto
          -60 -30 -61 -49 -88 hhcurveto
          endchar
        </CharString>
        <CharString name="nine.frac">
          651 -77 callsubr
          1465 -101 callsubr
        </CharString>
        <CharString name="nine.smcp">
          -61 -19 248 141 230 330 -69 callgsubr
          70 312 296 20 callgsubr
          530 1182 rmoveto
          -268 -192 -194 -230 -263 150 -125 238 79 76 29 47 59 hvcurveto
          -193 -28 -136 -24 -199 hhcurveto
          -18 -248 23 hlineto
          372 303 133 507 hvcurveto
          81 vlineto
          348 -211 132 -248 vhcurveto
          13 -582 rmoveto
          -107 -54 52 100 98 55 80 93 94 54 -45 -117 hvcurveto
          -116 vlineto
          -26 -23 -44 -26 -68 hhcurveto
          endchar
        </CharString>
        <CharString name="nine.sup">
          -13 -77 callsubr
          801 -101 callsubr
        </CharString>
        <CharString name="nine.tnum">
          55 endchar
        </CharString>
        <CharString name="ntilde">
          11 callgsubr
          153 -62 callgsubr
          98 311 -214 177 366 313 -269 176 hintmask 00000000
          hintmask 11010110
          453 1339 rmoveto
          hintmask 11101001
          -83 callsubr
          hintmask 11010110
          -47 callsubr
          -95 callgsubr
          hintmask 11101010
          257 -237 -72 callsubr
        </CharString>
        <CharString name="numbersign">
          75 21 -21 410 180 270 180 416 -20 hstem
          48 1116 vstem
          1164 860 rmoveto
          180 -224 vlineto
          71 416 rlineto
          -191 hlineto
          -71 -416 rlineto
          -179 hlineto
          71 416 rlineto
          -189 hlineto
          -71 -416 rlineto
          -258 -180 227 hlineto
          -46 -270 rlineto
          -256 -180 225 hlineto
          -70 -410 rlineto
          191 hlineto
          70 410 rlineto
          178 hlineto
          -70 -410 rlineto
          190 hlineto
          70 410 rlineto
          256 180 -225 hlineto
          46 270 rlineto
          -237 -270 rmoveto
          -178 hlineto
          46 270 rlineto
          178 hlineto
          endchar
        </CharString>
        <CharString name="o">
          24 -20 252 618 252 32 callsubr
          60 551 -107 callsubr
        </CharString>
        <CharString name="o.ss06">
          48 -1 callsubr
          53 312 449 -46 callsubr
          53 551 rmoveto
          -21 vlineto
          -316 204 -234 333 333 203 234 316 vhcurveto
          21 vlineto
          316 -203 235 -335 -331 -204 -235 -316 vhcurveto
          312 -21 rmoveto
          21 vlineto
          162 71 137 152 155 71 -137 -162 vhcurveto
          -21 vlineto
          -167 -71 -131 -153 -155 -70 131 167 vhcurveto
          endchar
        </CharString>
        <CharString name="oacute">
          -48 callsubr
          122 312 32 callsubr
          618 14 callsubr
          rmoveto
          -92 callgsubr
          278 312 rlineto
          -893 -985 -107 callsubr
        </CharString>
        <CharString name="ocircumflex">
          -48 callsubr
          141 13 32 callsubr
          980 1256 rmoveto
          -100 callgsubr
          156 138 157 -138 rlineto
          247 hlineto
          -920 -692 -107 callsubr
        </CharString>
        <CharString name="odieresis">
          -48 callsubr
          132 262 32 callsubr
          323 1496 -103 callsubr
          -766 -945 -107 callsubr
        </CharString>
        <CharString name="oe">
          716 -54 callgsubr
          208 206 12 callsubr
          hstem
          80 312 1071 306 vstem
          1769 612 rmoveto
          300 -169 190 -297 vhcurveto
          -145 1 -116 -51 -83 -86 rrcurveto
          85 -87 -122 51 -155 hhcurveto
          -332 -183 -235 -316 20 callsubr
          -316 183 -234 334 156 123 52 87 86 vhcurveto
          -87 89 125 -52 153 hhcurveto
          186 149 59 63 82 hvcurveto
          -80 200 rlineto
          -40 -86 -70 -30 -143 hhcurveto
          -141 -78 92 116 -20 hvcurveto
          641 hlineto
          -969 90 rmoveto
          -167 -51 -131 -152 -155 -50 131 167 vhcurveto
          21 vlineto
          162 51 137 152 155 50 -137 -162 vhcurveto
          663 95 rmoveto
          -24 callsubr
          117 17 51 87 106 hhcurveto
          113 47 -68 -110 hvcurveto
          endchar
        </CharString>
        <CharString name="ograve">
          -48 callsubr
          122 312 32 callsubr
          751 6 callsubr
          -98 callgsubr
          -437 -673 -107 callsubr
        </CharString>
        <CharString name="one">
          50 21 -21 1457 -20 hstem
          506 -46 callsubr
          818 hmoveto
          1457 -31 vlineto
          -620 -220 rlineto
          -249 vlineto
          339 100 rlineto
          -1088 vlineto
          endchar
        </CharString>
        <CharString name="one.smcp">
          -61 -18 callgsubr
          447 20 callgsubr
          758 hmoveto
          1161 -28 vlineto
          -581 -185 rlineto
          -239 vlineto
          298 61 rlineto
          -798 vlineto
          endchar
        </CharString>
        <CharString name="one.sup">
          21 -21 36 callsubr
          hmoveto
          -59 callgsubr
        </CharString>
        <CharString name="one.tnum">
          35 endchar
        </CharString>
        <CharString name="ordfeminine">
          -224 691 144 198 117 178 148 hstemhm
          136 175 -159 173 254 175 hintmask 11101100
          780 705 rmoveto
          -19 58 -7 58 65 vvcurveto
          314 vlineto
          183 -117 93 -174 -188 -123 -98 -135 vhcurveto
          173 -14 rlineto
          64 52 35 86 78 38 -45 -82 vhcurveto
          -51 -102 vlineto
          hintmask 11110100
          -230 -111 -84 -147 -138 89 -90 160 94 66 38 44 41 hvcurveto
          4 -24 6 -23 7 -21 rrcurveto
          -292 218 rmoveto
          58 51 52 116 vhcurveto
          101 -136 hlineto
          -33 -36 -62 -29 -53 hhcurveto
          -80 -37 33 55 hvcurveto
          endchar
        </CharString>
        <CharString name="ordmasculine">
          -193 690 146 492 148 hstem
          118 175 343 175 vstem
          118 1121 rmoveto
          -77 vlineto
          -207 134 -147 214 213 132 147 207 vhcurveto
          77 vlineto
          207 -132 148 -215 -212 -134 -148 -207 vhcurveto
          175 -77 rmoveto
          77 vlineto
          117 56 90 115 116 56 -90 -117 vhcurveto
          -77 vlineto
          -119 -56 -89 -114 -117 -56 89 119 vhcurveto
          endchar
        </CharString>
        <CharString name="oslash">
          23 -37 callgsubr
          116 -20 hstemhm
          8 callsubr
          410 40 callsubr
          hintmask 11111000
          892 1007 rmoveto
          103 211 rlineto
          -168 hlineto
          -69 -143 rlineto
          18 -55 -60 9 -67 hhcurveto
          -332 -184 -235 -316 20 callsubr
          -198 72 -166 136 -96 vhcurveto
          -104 -214 rlineto
          168 hlineto
          72 148 rlineto
          -16 53 58 -8 63 hhcurveto
          332 184 234 316 hvcurveto
          21 vlineto
          195 -70 164 -132 97 vhcurveto
          -520 -477 rmoveto
          21 vlineto
          162 52 137 152 25 22 -4 -6 20 vhcurveto
          -240 -494 rlineto
          -22 51 -9 63 70 vvcurveto
          410 hmoveto
          -167 -52 -131 -152 -22 -20 3 4 -17 vhcurveto
          236 486 rlineto
          19 -50 8 -60 -64 vvcurveto
          endchar
        </CharString>
        <CharString name="otilde">
          -48 callsubr
          153 -62 callgsubr
          8 callsubr
          -178 -50 callgsubr
          -175 40 callsubr
          hintmask 11101010
          957 1526 -91 callgsubr
          -897 -975 -107 callsubr
        </CharString>
        <CharString name="p">
          22 -20 -78 callgsubr
          105 312 363 -9 callgsubr
          -115 -86 -46 -77 -63 hvcurveto
          -11 103 rlineto
          -290 -1498 312 509 hlineto
          -71 62 83 -42 110 -54 callsubr
          -90 -55 37 61 -31 vhcurveto
          426 vlineto
          62 31 55 32 88 17 callsubr
        </CharString>
        <CharString name="p.ss06">
          44 -20 -78 callgsubr
          105 312 383 -9 callgsubr
          -115 -86 -46 -79 -63 hvcurveto
          -12 105 rlineto
          -289 -1498 312 508 hlineto
          -70 62 83 -42 110 hhcurveto
          273 167 236 315 hvcurveto
          21 vlineto
          329 -167 221 -275 vhcurveto
          130 -571 rmoveto
          hintmask 10111000
          -166 -67 -133 -140 -85 -57 32 55 -34 vhcurveto
          446 vlineto
          56 34 57 29 83 hhcurveto
          138 71 -126 -172 hvcurveto
          endchar
        </CharString>
        <CharString name="paragraph">
          -128 -80 callsubr
          hstem
          654 224 vstem
          654 hmoveto
          224 -74 callgsubr
          -307 hlineto
          -318 -174 -200 -268 -270 174 -198 318 hvcurveto
          83 hlineto
          endchar
        </CharString>
        <CharString name="parenleft">
          -410 -452 2061 hstem
          123 256 vstem
          123 592 rmoveto
          -26 vlineto
          -557 263 -361 236 -100 vhcurveto
          59 162 rlineto
          -150 112 -152 260 482 vvcurveto
          30 vlineto
          482 152 260 150 110 vhcurveto
          -59 163 rlineto
          -236 -100 -263 -361 -556 vvcurveto
          endchar
        </CharString>
        <CharString name="parenright">
          -409 -452 2061 hstem
          342 276 vstem
          618 566 rmoveto
          26 vlineto
          532 -273 385 -245 100 vhcurveto
          -60 -162 rlineto
          147 -110 155 -261 -482 vvcurveto
          -30 vlineto
          -482 -154 -261 -148 -111 vhcurveto
          60 -162 rlineto
          245 100 273 386 532 vvcurveto
          endchar
        </CharString>
        <CharString name="percent">
          385 -20 177 323 177 143 177 323 177 hstem
          93 204 232 204 54 204 233 204 vstem
          93 1176 rmoveto
          -77 vlineto
          -163 110 30 callsubr
          163 vhcurveto
          77 vlineto
          165 -107 136 -214 -209 -110 -136 -165 vhcurveto
          382 -1067 -6 callgsubr
          -29 912 rmoveto
          77 vlineto
          65 38 59 77 80 37 -59 -65 vhcurveto
          -77 vlineto
          -63 -36 -59 -79 -79 -38 59 63 vhcurveto
          490 -742 rmoveto
          -77 vlineto
          -164 111 30 callsubr
          164 vhcurveto
          77 vlineto
          164 -107 136 -214 -209 -111 -136 -164 vhcurveto
          204 -77 rmoveto
          77 vlineto
          64 38 59 78 79 38 -59 -64 vhcurveto
          -77 vlineto
          -64 -21 -59 -94 -69 -49 59 64 vhcurveto
          endchar
        </CharString>
        <CharString name="period">
          -524 10 -21 hstem
          122 348 vstem
          296 318 -51 callgsubr
          endchar
        </CharString>
        <CharString name="periodcentered">
          -495 524 330 hstem
          139 349 vstem
          314 854 rmoveto
          -105 -70 -72 -93 -93 70 -72 105 104 70 72 93 93 -70 72 -104 hvcurveto
          endchar
        </CharString>
        <CharString name="plus">
          -24 543 280 383 -20 hstem
          405 293 vstem
          1050 823 rmoveto
          -352 383 -293 -383 -353 -280 353 -397 293 397 352 hlineto
          endchar
        </CharString>
        <CharString name="plusminus">
          -29 1 255 447 261 hstem
          410 273 vstem
          683 964 rmoveto
          327 -273 -327 -323 -261 323 -353 273 353 320 261 vlineto
          -895 -963 rmoveto
          870 255 -870 hlineto
          endchar
        </CharString>
        <CharString name="q">
          23 -20 -78 callgsubr
          8 callsubr
          363 313 hintmask 01111000
          776 33 callgsubr
          -21 -114 rlineto
          84 35 callsubr
          -149 -221 -25 callsubr
          149 -236 -35 callgsubr
          -47 133 166 hvcurveto
          21 vlineto
          171 51 127 139 87 55 -32 -61 31 vhcurveto
          -429 vlineto
          -60 -31 -55 -36 -89 hhcurveto
          endchar
        </CharString>
        <CharString name="q.ss06">
          46 -20 -78 callgsubr
          63 311 384 313 hintmask 01111000
          799 33 callgsubr
          -21 -115 rlineto
          85 35 callsubr
          -169 -222 -25 callsubr
          169 -235 -35 callgsubr
          -68 132 -38 callsubr
          72 127 139 82 57 -29 -56 34 vhcurveto
          -446 vlineto
          -55 -34 -57 -32 -84 hhcurveto
          endchar
        </CharString>
        <CharString name="question">
          -100 9 -21 1235 253 hstemhm
          39 920 -312 312 hintmask 11100000
          346 457 rmoveto
          270 hlineto
          3 104 21 64 76 68 rrcurveto
          hintmask 11010000
          133 123 110 92 173 vvcurveto
          256 -171 139 -285 -259 -201 -126 -292 -4 vhcurveto
          313 hlineto
          117 3 71 48 77 hhcurveto
          94 50 -50 -106 -88 -62 -66 -93 -78 hvcurveto
          hintmask 11100000
          -111 -95 -35 -106 -177 vvcurveto
          139 -141 rmoveto
          -104 -70 -71 -93 -93 70 -71 104 104 70 71 93 93 -70 71 -104 hvcurveto
          endchar
        </CharString>
        <CharString name="questiondown">
          -100 -385 -42 callgsubr
          71 313 -313 921 hintmask 10100000
          554 775 -17 callgsubr
          130 -141 rmoveto
          -270 hlineto
          -3 -104 -12 -55 -76 -68 rrcurveto
          hintmask 11000000
          -132 -122 -120 -102 -173 vvcurveto
          -257 172 -138 286 258 201 126 292 4 vhcurveto
          -312 hlineto
          -117 -3 -69 -49 -86 hhcurveto
          -83 -55 44 99 104 67 62 92 85 hvcurveto
          hintmask 10100000
          111 95 30 101 177 vvcurveto
          endchar
        </CharString>
        <CharString name="quotedbl">
          -477 975 562 hstem
          46 215 124 214 vstem
          261 1398 rmoveto
          139 -215 -562 174 vlineto
          379 423 rmoveto
          139 -214 -562 173 vlineto
          endchar
        </CharString>
        <CharString name="quotedblbase">
          -282 -329 596 hstem
          152 247 105 247 vstem
          399 63 rmoveto
          15 callgsubr
          -32 23 callgsubr
          77 163 140 vvcurveto
          352 hmoveto
          15 callgsubr
          -41 23 callgsubr
          86 163 140 vvcurveto
          endchar
        </CharString>
        <CharString name="quotedblleft">
          -279 1044 530 hstem
          113 238 110 238 vstem
          113 1203 rmoveto
          -71 callsubr
          348 hmoveto
          -71 callsubr
          endchar
        </CharString>
        <CharString name="quotedblright">
          -273 1003 533 hstem
          163 238 116 238 vstem
          401 1375 rmoveto
          -70 callgsubr
          354 hmoveto
          -70 callgsubr
          endchar
        </CharString>
        <CharString name="quoteleft">
          -637 1044 530 hstem
          106 238 vstem
          106 1203 rmoveto
          -71 callsubr
          endchar
        </CharString>
        <CharString name="quoteright">
          -648 1003 533 hstem
          149 238 vstem
          387 1375 rmoveto
          -70 callgsubr
          endchar
        </CharString>
        <CharString name="quotesinglbase">
          -600 -309 552 hstem
          152 247 vstem
          399 63 rmoveto
          1 180 rlineto
          -248 -179 hlineto
          -128 -32 -88 -46 -77 vhcurveto
          142 -80 rlineto
          97 85 86 154 133 vvcurveto
          endchar
        </CharString>
        <CharString name="quotesingle">
          -807 969 567 hstem
          54 225 vstem
          279 1379 rmoveto
          157 -225 -567 194 vlineto
          endchar
        </CharString>
        <CharString name="r">
          -370 -18 callgsubr
          105 -46 callsubr
          647 34 callgsubr
          -105 -81 -57 -96 -53 hvcurveto
          -10 133 rlineto
          -293 -1082 312 692 hlineto
          69 32 67 35 110 hhcurveto
          31 48 -5 -3 29 hvcurveto
          4 302 rlineto
          8 -23 -36 4 -32 hhcurveto
          endchar
        </CharString>
        <CharString name="registered">
          477 -20 125 548 134 246 133 185 125 hstemhm
          86 122 293 151 301 151 -147 150 276 123 hintmask 1111111010000000
          -85 callsubr
          308 410 rmoveto
          95 -28 79 -78 42 vhcurveto
          hintmask 1111110110000000
          71 40 38 57 75 vvcurveto
          172 -127 91 -198 vhcurveto
          -281 -850 151 337 158 hlineto
          hintmask 1111111010000000
          104 39 -45 -94 hvcurveto
          -54 vlineto
          -29 0 -81 13 -34 vhcurveto
          155 16 hlineto
          -13 30 -4 47 50 vvcurveto
          hintmask 1111110110000000
          -320 328 rmoveto
          -132 246 130 hlineto
          130 45 -33 -97 -77 -81 -39 -92 hvcurveto
          endchar
        </CharString>
        <CharString name="ring">
          -452 1104 95 212 96 hstem
          119 2 callgsubr
          vstem
          343 1507 rmoveto
          -130 -94 -93 -110 -111 94 -89 130 129 95 89 111 110 -95 93 -129 hvcurveto
          -308 vmoveto
          -65 -41 47 58 58 41 49 65 65 41 -49 -58 -58 -41 -47 -65 hvcurveto
          endchar
        </CharString>
        <CharString name="s">
          -79 -20 218 687 217 38 callsubr
          12 callgsubr
          463 430 rmoveto
          -82 callgsubr
          206 -177 145 -285 -10 callsubr
          vhcurveto
          endchar
        </CharString>
        <CharString name="section">
          163 -442 253 1413 -69 callgsubr
          94 1094 vstem
          1031 224 rmoveto
          100 58 57 90 122 vvcurveto
          239 -176 104 -308 78 vhcurveto
          -225 59 -50 32 88 vvcurveto
          72 62 58 151 142 72 -76 -97 vhcurveto
          311 hlineto
          274 -199 151 -326 -319 -207 -151 -233 -133 48 -90 89 -67 vhcurveto
          -101 -59 -58 -92 -121 vvcurveto
          -239 181 -102 301 -79 vhcurveto
          216 -60 62 -40 -78 vvcurveto
          -76 -73 -45 -139 -116 -121 26 135 vhcurveto
          -311 hlineto
          -320 275 -94 273 317 207 132 243 134 -47 90 -88 67 vhcurveto
          -625 343 rmoveto
          55 19 46 43 28 vhcurveto
          40 -14 44 -14 47 -13 rrcurveto
          217 -65 64 -45 -86 vvcurveto
          -54 -24 -45 -44 -29 vhcurveto
          -41 13 -43 13 -47 12 rrcurveto
          -226 67 -49 34 97 vvcurveto
          endchar
        </CharString>
        <CharString name="semicolon">
          -569 -384 1507 hstem
          168 255 vstem
          281 1123 -51 callgsubr
          142 -1080 -49 callsubr
        </CharString>
        <CharString name="seven">
          50 21 -21 1204 -69 callgsubr
          57 1039 vstem
          1096 1282 rmoveto
          174 -1039 -252 710 vlineto
          -555 -1204 rlineto
          329 hlineto
          endchar
        </CharString>
        <CharString name="seven.frac">
          1280 -28 callsubr
          1333 -76 callsubr
        </CharString>
        <CharString name="seven.smcp">
          -61 21 -21 913 -69 callgsubr
          45 948 vstem
          993 990 rmoveto
          175 -948 -252 620 vlineto
          -487 -913 rlineto
          329 hlineto
          endchar
        </CharString>
        <CharString name="seven.sup">
          21 -21 616 -28 callsubr
          669 -76 callsubr
        </CharString>
        <CharString name="seven.tnum">
          -61 endchar
        </CharString>
        <CharString name="six">
          4 callsubr
          93 312 399 -46 callsubr
          702 -90 callsubr
        </CharString>
        <CharString name="six.frac">
          653 -77 callgsubr
          1192 -101 callgsubr
        </CharString>
        <CharString name="six.smcp">
          -61 -16 250 296 248 157 255 hstem
          72 312 324 -41 callgsubr
          649 778 rmoveto
          -110 -86 -39 -55 -61 hvcurveto
          216 39 171 35 198 hhcurveto
          16 255 -51 hlineto
          -356 -337 -169 -484 hvcurveto
          -75 vlineto
          -339 212 -139 276 267 194 172 232 235 -134 155 -238 vhcurveto
          -99 -544 rmoveto
          -112 -54 51 120 hvcurveto
          60 vlineto
          32 27 57 33 80 hhcurveto
          97 63 -39 -98 -88 -66 -71 -92 hvcurveto
          endchar
        </CharString>
        <CharString name="six.sup">
          -11 -77 callgsubr
          528 -101 callgsubr
        </CharString>
        <CharString name="six.tnum">
          4 callsubr
          87 312 399 -46 callsubr
          696 -90 callsubr
        </CharString>
        <CharString name="slash">
          -387 3 callgsubr
          -21 745 vstem
          206 -125 rmoveto
          518 1581 rlineto
          -226 hlineto
          -519 -1581 rlineto
          endchar
        </CharString>
        <CharString name="space">
          -621 endchar
        </CharString>
        <CharString name="st">
          623 -20 218 657 227 -197 217 234 224 38 callsubr
          234 312 hintmask 11010010
          1638 236 rmoveto
          -78 -32 27 86 hvcurveto
          506 181 227 -181 90 vlineto
          210 -122 178 -346 -285 -144 -134 -163 vhcurveto
          hintmask 10111110
          -62 18 -56 28 -60 vhcurveto
          11 -48 -53 6 -57 hhcurveto
          -10 callsubr
          hvcurveto
          -82 callgsubr
          194 -80 83 158 vvcurveto
          71 37 79 113 80 85 -38 -126 vhcurveto
          hintmask 11010010
          -90 -147 -227 147 -508 vlineto
          -261 123 -106 202 71 58 10 18 52 vhcurveto
          235 vlineto
          6 callgsubr
        </CharString>
        <CharString name="sterling">
          92 0 261 305 253 395 261 0 -20 hstemhm
          101 1067 -919 323 hintmask 11011000
          539 261 rmoveto
          42 49 16 60 76 vvcurveto
          -5 120 rlineto
          298 253 hlineto
          hintmask 11100100
          -309 hlineto
          -9 220 rlineto
          117 56 58 79 83 70 -40 -123 vhcurveto
          307 hlineto
          254 -165 170 -299 -273 -181 -160 -276 vhcurveto
          7 -220 rlineto
          -155 -253 163 hlineto
          4 -142 rlineto
          -75 -5 -72 -61 -16 vhcurveto
          -98 -261 1064 261 hlineto
          endchar
        </CharString>
        <CharString name="sterling.smcp">
          61 0 252 219 179 282 249 hstem
          779 118 vstem
          445 252 rmoveto
          61 59 35 74 5 86 rrcurveto
          351 179 -358 hlineto
          -4 78 rlineto
          132 -8 45 72 83 hhcurveto
          76 48 -45 -127 hvcurveto
          313 hlineto
          252 -145 169 -295 -269 -169 -166 -287 9 vhcurveto
          2 -78 rlineto
          -157 -179 162 hlineto
          -100 -16 -103 -65 -16 vhcurveto
          -10 -252 967 252 hlineto
          endchar
        </CharString>
        <CharString name="t">
          -433 1 -21 875 227 hstem
          160 -46 callsubr
          582 -11 callgsubr
          268 -312 -268 29 callsubr
          -12 callsubr
          6 callgsubr
        </CharString>
        <CharString name="thorn">
          25 -20 -78 callgsubr
          105 313 362 -9 callgsubr
          -108 -82 -40 -69 -62 hvcurveto
          543 -313 -1952 313 508 vlineto
          -70 62 83 -42 109 -54 callsubr
          -89 -55 36 60 -31 vhcurveto
          430 vlineto
          61 31 55 31 87 17 callsubr
        </CharString>
        <CharString name="three">
          50 -54 callgsubr
          390 243 360 -42 callgsubr
          755 312 -289 40 callsubr
          hintmask 11101000
          846 748 rmoveto
          hintmask 11110000
          138 64 83 119 130 vvcurveto
          272 -206 144 -300 -263 -221 -152 -244 vhcurveto
          311 hlineto
          90 88 54 94 126 59 -76 -94 -116 -65 -74 -136 vhcurveto
          -159 -243 159 hlineto
          hintmask 11101000
          139 85 -58 -149 -105 -77 -78 -131 -113 -88 74 97 hvcurveto
          -313 hlineto
          -294 259 -129 246 300 229 156 273 166 -87 117 -157 56 vhcurveto
          endchar
        </CharString>
        <CharString name="three.smcp">
          -61 8 callgsubr
          257 205 233 -69 callgsubr
          39 961 vstem
          779 598 rmoveto
          121 44 79 85 120 vvcurveto
          218 -193 117 -280 -234 -211 -112 -222 vhcurveto
          311 hlineto
          53 65 29 79 113 38 -57 -51 -75 -51 -50 -109 vhcurveto
          -131 -205 131 hlineto
          113 68 -36 -96 -66 -48 -59 -114 -107 -66 57 60 hvcurveto
          -314 hlineto
          -271 249 -97 218 280 214 125 218 155 -86 81 -135 35 vhcurveto
          endchar
        </CharString>
        <CharString name="three.sup">
          -11 -71 callgsubr
          405 -96 callsubr
        </CharString>
        <CharString name="three.tnum">
          -20 endchar
        </CharString>
        <CharString name="tilde">
          -144 1259 -62 callgsubr
          115 -50 callgsubr
          hintmask 10110000
          878 1530 rmoveto
          -84 callsubr
          hintmask 01110000
          -47 callsubr
          -95 callgsubr
          hintmask 10110000
          -62 callsubr
          -80 callgsubr
          endchar
        </CharString>
        <CharString name="tildecomb">
          -1131 1259 -62 callgsubr
          -936 -50 callgsubr
          hintmask 10110000
          -173 1530 rmoveto
          -84 callsubr
          hintmask 01110000
          -47 callsubr
          -95 callgsubr
          hintmask 10110000
          -62 callsubr
          -80 callgsubr
          endchar
        </CharString>
        <CharString name="two">
          50 0 252 973 -42 callgsubr
          65 1036 -355 313 hintmask 11100000
          1101 hmoveto
          252 -601 vlineto
          225 233 rlineto
          hintmask 11010000
          205 212 129 160 201 vvcurveto
          263 -168 156 -313 -311 -202 -220 -266 vhcurveto
          313 hlineto
          134 72 100 121 113 62 -71 -126 -78 -48 -95 -133 -147 vhcurveto
          -470 -495 rlineto
          -213 vlineto
          endchar
        </CharString>
        <CharString name="two.smcp">
          -61 0 251 679 -69 callgsubr
          51 945 vstem
          996 hmoveto
          251 -507 vlineto
          149 114 rlineto
          223 171 104 101 176 vvcurveto
          236 -168 133 -294 -278 -174 -185 -224 vhcurveto
          313 hlineto
          82 51 75 101 91 45 -45 -72 -44 -45 -90 -107 -91 vhcurveto
          -422 -378 rlineto
          -210 vlineto
          endchar
        </CharString>
        <CharString name="two.sup">
          0 -64 callsubr
          hmoveto
          -94 callsubr
        </CharString>
        <CharString name="two.tnum">
          23 endchar
        </CharString>
        <CharString name="u">
          -24 callgsubr
          hstemhm
          97 312 330 313 hintmask 01110000
          739 33 callgsubr
          hintmask 10110000
          -757 vlineto
          -58 -32 -57 -35 -96 hhcurveto
          -88 -57 45 103 hvcurveto
          702 -312 -700 vlineto
          -286 147 -116 214 128 97 50 84 67 vhcurveto
          hintmask 01110000
          9 -114 rlineto
          293 1082 hlineto
          endchar
        </CharString>
        <CharString name="uacute">
          -24 callgsubr
          6 callsubr
          312 -34 callgsubr
          951 14 callsubr
          rmoveto
          -335 hlineto
          -92 callgsubr
          66 -142 -95 callsubr
        </CharString>
        <CharString name="ucircumflex">
          -24 callgsubr
          1243 13 -34 callgsubr
          574 1381 rmoveto
          157 -138 rlineto
          247 13 hlineto
          -100 callgsubr
          321 -161 -95 callsubr
        </CharString>
        <CharString name="udieresis">
          -24 callgsubr
          1234 262 -34 callgsubr
          321 1234 -103 callgsubr
          -85 -152 -95 callsubr
        </CharString>
        <CharString name="ugrave">
          -24 callgsubr
          6 callsubr
          312 -34 callgsubr
          749 6 callsubr
          -98 callgsubr
          244 -142 -95 callsubr
        </CharString>
        <CharString name="underscore">
          -221 -243 243 hstem
          0 908 vstem
          908 -243 rmoveto
          243 -908 -243 vlineto
          endchar
        </CharString>
        <CharString name="uni00AD">
          -531 -31 callsubr
        </CharString>
        <CharString name="uni00B2">
          667 -64 callsubr
          667 rmoveto
          -94 callsubr
        </CharString>
        <CharString name="uni00B3">
          656 -71 callgsubr
          1072 -96 callsubr
        </CharString>
        <CharString name="uni00B9">
          667 21 callsubr
          667 rmoveto
          -59 callgsubr
        </CharString>
        <CharString name="uni05B0">
          31 callgsubr
          hstem
          533 207 vstem
          637 -343 rmoveto
          -92 callsubr
          -276 vmoveto
          60 43 39 53 53 -43 40 -60 -38 callgsubr
        </CharString>
        <CharString name="uni05B1">
          1 callsubr
          -145 184 52 185 hstemhm
          251 207 -66 207 -66 207 78 207 hintmask 01110110
          355 -343 rmoveto
          -92 callsubr
          282 hmoveto
          -92 callsubr
          285 hmoveto
          -92 callsubr
          hintmask 01101010
          -426 -22 callgsubr
          hintmask 10110110
          426 -40 rmoveto
          60 43 39 53 53 -43 40 -60 -38 callgsubr
        </CharString>
        <CharString name="uni05B2">
          -4 callsubr
          817 206 hintmask 00000000
          hintmask 01010000
          -27 callsubr
          hintmask 10110000
          -668 25 rmoveto
          479 137 -479 hlineto
          668 -438 rmoveto
          59 43 39 53 53 -43 40 -59 -38 callgsubr
        </CharString>
        <CharString name="uni05B3">
          -4 callsubr
          389 206 222 206 hintmask 00000000
          hintmask 01011000
          -27 callsubr
          -429 -274 rmoveto
          59 44 39 54 hvcurveto
          hintmask 00111000
          57 -51 11 -11 138 vhcurveto
          199 137 -480 -137 198 hlineto
          -9 -138 -52 -11 -57 vvcurveto
          hintmask 01011000
          -53 45 -40 58 vhcurveto
          hintmask 10111000
          429 -2 rmoveto
          59 43 39 53 53 -43 40 -59 -38 callgsubr
        </CharString>
        <CharString name="uni05B4">
          -1131 -343 185 hstem
          533 207 vstem
          637 -343 rmoveto
          -92 callsubr
          endchar
        </CharString>
        <CharString name="uni05B5">
          -1131 -343 185 hstemhm
          392 207 74 40 callgsubr
          hintmask 11100000
          -64 callgsubr
          endchar
        </CharString>
        <CharString name="uni05B6">
          -1131 -579 184 52 185 hstemhm
          392 207 -66 207 -67 40 callgsubr
          hintmask 11101000
          -64 callgsubr
          hintmask 11010000
          -140 -22 callgsubr
          endchar
        </CharString>
        <CharString name="uni05B7">
          -1131 26 callgsubr
          hstem
          394 484 vstem
          394 -318 -13 callgsubr
        </CharString>
        <CharString name="uni05B8">
          -1131 26 callgsubr
          hstemhm
          533 40 callgsubr
          hintmask 11000000
          637 -590 rmoveto
          22 callgsubr
          hvcurveto
          174 137 -428 -137 -3 callgsubr
          vhcurveto
          endchar
        </CharString>
        <CharString name="uni05B9">
          -19 callgsubr
          202 208 vstem
          306 -73 callgsubr
          -66 callgsubr
          endchar
        </CharString>
        <CharString name="uni05BA">
          -19 callgsubr
          202 208 vstem
          306 -73 callgsubr
          -66 callgsubr
          endchar
        </CharString>
        <CharString name="uni05BB">
          -1131 -814 185 51 184 51 185 hstemhm
          533 207 -64 206 -64 207 12 callgsubr
          637 -343 rmoveto
          -92 callsubr
          hintmask 11101000
          142 -235 rmoveto
          59 44 39 53 51 -44 41 -59 -59 -44 -38 -54 -53 45 -39 58 hvcurveto
          hintmask 11100100
          143 -236 rmoveto
          60 43 39 53 54 -43 39 -60 -66 callgsubr
          endchar
        </CharString>
        <CharString name="uni05BC">
          -1131 510 185 hstem
          232 207 vstem
          335 510 -104 callgsubr
          endchar
        </CharString>
        <CharString name="uni05BE">
          -534 19 callgsubr
          60 477 vstem
          537 949 rmoveto
          252 -477 -252 vlineto
          endchar
        </CharString>
        <CharString name="uni05BF">
          -1131 1368 163 hstem
          219 591 vstem
          219 -21 callgsubr
          endchar
        </CharString>
        <CharString name="uni05C1">
          -19 callgsubr
          1328 207 vstem
          1431 -73 callgsubr
          -58 -32 callgsubr
          58 hvcurveto
          endchar
        </CharString>
        <CharString name="uni05C2">
          -19 callgsubr
          186 208 vstem
          290 -60 callgsubr
          endchar
        </CharString>
        <CharString name="uni05D0">
          251 21 -17 callsubr
          -99 callsubr
          endchar
        </CharString>
        <CharString name="uni05D1">
          -14 -1 callgsubr
          624 -15 callgsubr
          950 263 -84 callgsubr
          endchar
        </CharString>
        <CharString name="uni05D2">
          -211 7 -21 27 -21 29 -21 -75 callgsubr
          hstemhm
          402 320 hintmask 00000000
          hintmask 10011000
          90 -35 callsubr
          hintmask 00111000
          -65 callgsubr
          hintmask 01011000
          -293 vlineto
          hintmask 10011000
          -4 25 28 -2 26 hhcurveto
          endchar
        </CharString>
        <CharString name="uni05D2.001">
          -174 7 -21 27 -21 29 -21 -75 callgsubr
          hstemhm
          439 320 hintmask 00000000
          hintmask 10011000
          127 -35 callsubr
          hintmask 00111000
          72 -300 rlineto
          299 hlineto
          -81 400 rlineto
          -12 63 -7 68 63 vvcurveto
          607 -582 -252 262 -482 vlineto
          -52 -124 -94 -65 -148 -2 rrcurveto
          -30 -33 3 6 -35 hvcurveto
          hintmask 01011000
          -293 vlineto
          hintmask 10011000
          -4 26 28 -2 26 hhcurveto
          endchar
        </CharString>
        <CharString name="uni05D3">
          38 -86 callsubr
          563 -29 callsubr
          endchar
        </CharString>
        <CharString name="uni05D4">
          154 -86 callsubr
          141 314 373 -52 callsubr
          -687 -778 -30 callgsubr
        </CharString>
        <CharString name="uni05D5">
          -469 15 callsubr
          vstem
          175 hmoveto
          5 callsubr
        </CharString>
        <CharString name="uni05D6">
          -328 -86 callsubr
          67 673 vstem
          -28 callgsubr
          endchar
        </CharString>
        <CharString name="uni05D7">
          171 -86 callsubr
          162.5 324.5 357 -15 callgsubr
          162 hmoveto
          325 949 205 hlineto
          101 19 callsubr
          2 -774 rlineto
          324 746 hlineto
          301 -1 -164 154 -313 hhcurveto
          -529 hlineto
          endchar
        </CharString>
        <CharString name="uni05D8">
          181 -24 249 976 38 callgsubr
          403 325 hintmask 10111000
          -79 callsubr
          hintmask 11011000
          743 -325 -705 vlineto
          hintmask 10111000
          28 callgsubr
          endchar
        </CharString>
        <CharString name="uni05D9">
          -419 19 callgsubr
          236 -36 callsubr
          236 515 -81 callsubr
          endchar
        </CharString>
        <CharString name="uni05DA">
          -58 19 callgsubr
          592 -22 callsubr
          endchar
        </CharString>
        <CharString name="uni05DB">
          3 -19 250 718 -69 callgsubr
          647 -15 callgsubr
          413 -19 -89 callgsubr
          endchar
        </CharString>
        <CharString name="uni05DC">
          -10 -86 callsubr
          64 -36 callsubr
          -45 callgsubr
          endchar
        </CharString>
        <CharString name="uni05DD">
          222 -1 callgsubr
          162 325 379 -36 callsubr
          162 hmoveto
          1029 1201 -1029 35 callgsubr
          379 -696 vlineto
          endchar
        </CharString>
        <CharString name="uni05DE">
          236 0 252 715 265 hstem
          909 -86 callgsubr
          endchar
        </CharString>
        <CharString name="uni05DF">
          -472 19 callgsubr
          178 320 vstem
          178 -416 rmoveto
          320 1617 -426 -252 106 hlineto
          endchar
        </CharString>
        <CharString name="uni05E0">
          37 callsubr
          969 -42 callgsubr
          339 325 hintmask 01110000
          -31 callgsubr
          hintmask 10110000
          4 callgsubr
          hintmask 01110000
          -20 91 62 -9 80 hhcurveto
          endchar
        </CharString>
        <CharString name="uni05E1">
          195 -24 268 723 3 callsubr
          433 -93 callsubr
          endchar
        </CharString>
        <CharString name="uni05E2">
          161 1201 -20 hstem
          805 -15 callgsubr
          805 -66 callsubr
          -702 vlineto
          -128 -56 -86 -97 -42 vhcurveto
          -17 33 -11 38 -9 43 -176 17 callgsubr
          -66 40 -60 45 -42 rlinecurve
          -80 12 -90 24 -99 38 -67 -237 rcurveline
          -67 178 161 -22 142 hhcurveto
          351 239 187 358 hvcurveto
          686 vlineto
          endchar
        </CharString>
        <CharString name="uni05E3">
          10 callgsubr
          343 -69 callgsubr
          177 315 315 -82 callsubr
          endchar
        </CharString>
        <CharString name="uni05E4">
          -40 callsubr
          284 -69 callgsubr
          878 -36 callsubr
          615 -27 -98 callsubr
          endchar
        </CharString>
        <CharString name="uni05E5">
          64 1201 -20 hstem
          568 309 vstem
          1167 -66 callsubr
          -365 hlineto
          -177 -391 -237 391 rlineto
          -362 hlineto
          505 -749 rlineto
          26 -39 11 -33 -41 vvcurveto
          -755 309 720 vlineto
          85 -18 63 -44 68 vhcurveto
          endchar
        </CharString>
        <CharString name="uni05E6">
          83 0 253 948 -20 hstem
          26 1141 vstem
          -61 callgsubr
          endchar
        </CharString>
        <CharString name="uni05E7">
          212 -86 callsubr
          170 314 372 -53 callgsubr
          -430 -663 -30 callsubr
        </CharString>
        <CharString name="uni05E8">
          -112 -86 callsubr
          562 -36 callsubr
          562 hmoveto
          325 773 hlineto
          269 -176 159 -296 vhcurveto
          -382 -252 358 hlineto
          111 60 -56 -103 hvcurveto
          endchar
        </CharString>
        <CharString name="uni05E8.001">
          -94 callgsubr
        </CharString>
        <CharString name="uni05E8.002">
          -94 callgsubr
        </CharString>
        <CharString name="uni05E8.003">
          -94 callgsubr
        </CharString>
        <CharString name="uni05E8.004">
          -94 callgsubr
        </CharString>
        <CharString name="uni05E9">
          -13 callsubr
          985 -20 hstem
          13 callsubr
          254 315 265 315 vstem
          476 1201 -83 callgsubr
          -104 callsubr
          endchar
        </CharString>
        <CharString name="uni05EA">
          196 -5 callgsubr
          334 326 hintmask 00111100
          717 -66 callsubr
          -616 -78 callsubr
          154 hlineto
          100 19 callsubr
          hintmask 00111100
          2 -774 rlineto
          324 -26 callsubr
          endchar
        </CharString>
        <CharString name="uni05F0">
          193 15 callsubr
          336 -15 callgsubr
          175 hmoveto
          -68 callgsubr
          662 -949 -2 callgsubr
        </CharString>
        <CharString name="uni05F1">
          243 15 callsubr
          397 -36 callsubr
          175 hmoveto
          -68 callgsubr
          723 -434 -81 callsubr
          endchar
        </CharString>
        <CharString name="uni05F2">
          293 19 callgsubr
          236 325 387 -36 callsubr
          236 515 -81 callsubr
          712 -434 -81 callsubr
          endchar
        </CharString>
        <CharString name="uni05F3">
          -656 857 595 hstem
          125 289.5 vstem
          216 857 rmoveto
          114 98 83 -40 callgsubr
          -42 -123 -63 -87 vhcurveto
          endchar
        </CharString>
        <CharString name="uni05F4">
          -173 857 595 hstem
          152 289.5 147.5 289.5 vstem
          243 857 rmoveto
          114 98 83 -40 callgsubr
          -43 -123 -63 -87 vhcurveto
          634 -77 rmoveto
          115 98 82 -40 callgsubr
          -42 -123 -63 -87 vhcurveto
          endchar
        </CharString>
        <CharString name="uni1E9E">
          275 -21 252 -210 -21 1222 -20 23 -42 callgsubr
          82 313 613 312 hintmask 01101100
          929 849 rmoveto
          324 373 rlineto
          hintmask 01011100
          159 -206 -196 96 -249 hhcurveto
          -348 -171 -177 -342 -1 hvcurveto
          -958 313 956 vlineto
          200 84 69 123 112 81 -38 -52 69 vhcurveto
          -259 -290 rlineto
          -191 132 vlineto
          177 94 -58 -175 hvcurveto
          hintmask 10101100
          -119 -84 -71 -144 -91 -81 28 18 -41 vhcurveto
          -89 -237 rlineto
          -34 82 107 -27 154 hhcurveto
          273 226 147 296 hvcurveto
          hintmask 01101100
          243 -141 145 -250 39 vhcurveto
          endchar
        </CharString>
        <CharString name="uni1E9E.smcp">
          8 -21 243 -222 -21 21 40 -19 -21 938 242 hstemhm
          91 304 389 303 hintmask 00011110
          778 675 rmoveto
          216 253 rlineto
          165 -126 -143 87 -194 hhcurveto
          -286 -153 -148 -290 -1 hvcurveto
          -742 304 740 vlineto
          137 58 61 73 53 43 -25 -36 34 vhcurveto
          -160 -200 rlineto
          -190 82 vlineto
          131 75 -35 -99 hvcurveto
          hintmask 10001110
          -82 -48 -49 -75 -50 -44 28 18 -23 vhcurveto
          hintmask 00101110
          -89 -228 rlineto
          hintmask 01001110
          -34 60 76 -27 110 hhcurveto
          209 177 124 250 hvcurveto
          hintmask 00011110
          172 -113 111 -196 39 vhcurveto
          endchar
        </CharString>
        <CharString name="uni200C">
          -1131 -200 1383 hstem
          -688 222 vstem
          -688 1183 rmoveto
          -1383 222 1383 vlineto
          endchar
        </CharString>
        <CharString name="uni200D">
          -1131 1219 -20 hstem
          -689 221 vstem
          -249 1395 rmoveto
          -163 156 -166 -171 -167 171 -162 -156 172 -176 -172 -176 162 -155 56 57 rlineto
          -1145 221 1145 vlineto
          56 -57 163 155 -172 176 rlineto
          endchar
        </CharString>
        <CharString name="uni200E">
          39 callgsubr
          -893 221 vstem
          -351 1543 rmoveto
          -238 hlineto
          137 -163 rlineto
          -441 -1580 221 1378 218 hlineto
          -136 -161 rlineto
          238 hlineto
          201 262 rlineto
          endchar
        </CharString>
        <CharString name="uni200F">
          39 callgsubr
          -504 222 vstem
          -723 1380 rmoveto
          137 163 rlineto
          -238 hlineto
          -200 -264 200 -262 rlineto
          239 hlineto
          -137 161 rlineto
          218 -1378 222 1580 hlineto
          endchar
        </CharString>
        <CharString name="uni2070">
          656 -69 callsubr
          974 -100 callsubr
        </CharString>
        <CharString name="uni2074">
          825 174 457 -20 -20 callsubr
          999 -93 callgsubr
        </CharString>
        <CharString name="uni2075">
          656 -75 callsubr
          1048 -99 callgsubr
        </CharString>
        <CharString name="uni2076">
          656 -77 callgsubr
          1195 -101 callgsubr
        </CharString>
        <CharString name="uni2077">
          1283 -28 callsubr
          1336 -76 callsubr
        </CharString>
        <CharString name="uni2078">
          656 -89 callsubr
          1074 -105 callsubr
        </CharString>
        <CharString name="uni2079">
          654 -77 callsubr
          1468 -101 callsubr
        </CharString>
        <CharString name="uni2080">
          -372 -69 callsubr
          -54 -100 callsubr
        </CharString>
        <CharString name="uni2081">
          -361 21 callsubr
          -361 rmoveto
          -59 callgsubr
        </CharString>
        <CharString name="uni2082">
          -361 -64 callsubr
          -361 rmoveto
          -94 callsubr
        </CharString>
        <CharString name="uni2083">
          -372 -71 callgsubr
          44 -96 callsubr
        </CharString>
        <CharString name="uni2084">
          -203 174 -20 callsubr
          -29 -93 callgsubr
        </CharString>
        <CharString name="uni2085">
          -372 -75 callsubr
          20 -99 callgsubr
        </CharString>
        <CharString name="uni2086">
          -372 -77 callgsubr
          167 -101 callgsubr
        </CharString>
        <CharString name="uni2087">
          255 -28 callsubr
          308 -76 callsubr
        </CharString>
        <CharString name="uni2088">
          -372 -89 callsubr
          46 -105 callsubr
        </CharString>
        <CharString name="uni2089">
          -374 -77 callsubr
          440 -101 callsubr
        </CharString>
        <CharString name="uni20AA">
          814 0 261.5 680.5 261 hstem
          132 298 162 298 135 298 161 299 vstem
          132 hmoveto
          298 942 595 -242 hlineto
          -77 -11 -102 -18 -80 vhcurveto
          16 -13 259 42 rlineto
          36 77 16 113 70 vvcurveto
          473 -1191 vlineto
          460 -1203 rmoveto
          557 hlineto
          407 230 207 350 -3 hvcurveto
          646 -299 -654 vlineto
          -188 -141 -101 -185 1 vhcurveto
          -268 1 rlineto
          500 -298 vlineto
          endchar
        </CharString>
        <CharString name="uniFB1F">
          293 26 callgsubr
          1130 -69 callgsubr
          236 325 387 -36 callsubr
          236 515 -81 callsubr
          712 -434 -81 callsubr
          -791 -1267 -13 callgsubr
        </CharString>
        <CharString name="uniFB20">
          191 1201 -20 hstemhm
          820 325.5 hintmask 00000000
          hintmask 11000000
          835 -66 callsubr
          -30 -703 -4 -121 -48 -83 -84 -44 rlinecurve
          -16 32 -10 35 -9 40 -175 17 callgsubr
          -68 43 -63 47 -42 rlinecurve
          -85 10 -99 25 -110 43 -67 -238 rcurveline
          -65 178 161 -32 142 hhcurveto
          351 222 197 358 16 hvcurveto
          31 686 rlineto
          endchar
        </CharString>
        <CharString name="uniFB21">
          759 21 -21 1201 -20 hstem
          192 7 callgsubr
          1817 -66 callsubr
          -363 hlineto
          -288 -606 -634 606 rlineto
          -428 hlineto
          265 -257 rlineto
          -120 -81 -57 -123 -175 vvcurveto
          -565 314 564 vlineto
          95 9 68 18 59 vhcurveto
          813 -786 rlineto
          441 hlineto
          -390 373 rlineto
          endchar
        </CharString>
        <CharString name="uniFB22">
          318 -86 callsubr
          794 -15 callgsubr
          60 -66 callsubr
          -252 734 -949 326 932 vlineto
          260 29 rlineto
          240 vlineto
          endchar
        </CharString>
        <CharString name="uniFB23">
          535 -86 callsubr
          141 319 749 -36 callsubr
          1209 hmoveto
          325 773 hlineto
          269 -175 159 -297 vhcurveto
          -917 -252 894 hlineto
          110 60 -56 -103 hvcurveto
          -1068 -790 rmoveto
          319 396 hlineto
          88 21 122 7 48 vhcurveto
          -14 13 -291 -41 rlineto
          -2 -6 -40 -96 -126 vvcurveto
          endchar
        </CharString>
        <CharString name="uniFB24">
          422 -39 263 725 -69 callgsubr
          1066 -36 callsubr
          663 -39 rmoveto
          446 279 179 375 3 hvcurveto
          686 -1281 -252 956 -432 vlineto
          -188 -2 -117 -105 -295 hhcurveto
          -131 -204 22 43 -208 hvcurveto
          -47 -253 rlineto
          -49 207 227 -26 167 hhcurveto
          endchar
        </CharString>
        <CharString name="uniFB25">
          331 21 -21 -75 callgsubr
          261 -20 hstem
          64 -36 callsubr
          1392 -66 callsubr
          -1003 261 -325 -513 941 hlineto
          -531 -949 rlineto
          344 hlineto
          574 993 rlineto
          endchar
        </CharString>
        <CharString name="uniFB26">
          698 -1 callgsubr
          156 325 863 -15 callgsubr
          156 hmoveto
          1514 1201 -1514 35 callgsubr
          863 -696 vlineto
          endchar
        </CharString>
        <CharString name="uniFB27">
          252 -86 callsubr
          926 -15 callgsubr
          926 hmoveto
          326 773 hlineto
          269 -176 159 -296 vhcurveto
          -747 -252 723 hlineto
          112 58 -56 -103 hvcurveto
          endchar
        </CharString>
        <CharString name="uniFB28">
          693 -5 callgsubr
          832 326 hintmask 00111100
          1215 -66 callsubr
          -1114 -78 callsubr
          651 hlineto
          101 19 callsubr
          hintmask 00111100
          1 -774 rlineto
          325 -26 callsubr
          endchar
        </CharString>
        <CharString name="uniFB29">
          -29 547 269 390 -20 hstem
          404 293 vstem
          404 1206 rmoveto
          -390 -352 -269 998 269 -353 390 vlineto
          endchar
        </CharString>
        <CharString name="uniFB2A">
          -13 callsubr
          985 -33 callgsubr
          254 315 265 315 -276 40 callgsubr
          hintmask 11111010
          -65 callsubr
          hintmask 11111100
          -104 callsubr
          endchar
        </CharString>
        <CharString name="uniFB2B">
          -13 callsubr
          985 -33 callgsubr
          -273 208 319 315 265 315 hintmask 00000000
          hintmask 11101110
          307 -60 callgsubr
          hintmask 11110110
          169 -14 callgsubr
          -104 callsubr
          endchar
        </CharString>
        <CharString name="uniFB2C">
          -13 callsubr
          294 185 506 -33 callgsubr
          254 315 26 207 32 315 -276 207 hintmask 0000000000000000
          hintmask 1111110010000000
          -65 callsubr
          hintmask 1111110100000000
          -104 callsubr
          hintmask 1111111100000000
          481 123 -104 callgsubr
          endchar
        </CharString>
        <CharString name="uniFB2D">
          -13 callsubr
          294 185 506 -33 callgsubr
          -273 208 319 315 26 207 32 315 hintmask 0000000000000000
          hintmask 1111011010000000
          307 -60 callgsubr
          hintmask 1111101010000000
          169 -14 callgsubr
          -104 callsubr
          hintmask 1111101110000000
          481 123 -104 callgsubr
          endchar
        </CharString>
        <CharString name="uniFB2E">
          251 26 callgsubr
          202 -17 callsubr
          -99 callsubr
          -493 -822 -13 callgsubr
        </CharString>
        <CharString name="uniFB2F">
          251 26 callgsubr
          202 -17 callsubr
          126 207 -99 callsubr
          -464 -822 rmoveto
          -3 callgsubr
          22 callgsubr
          vhcurveto
          174 137 -428 hlineto
          endchar
        </CharString>
        <CharString name="uniFB30">
          251 21 -21 64 185 952 -20 hstem
          154 314 54 207 -99 callsubr
          -323 -255 rmoveto
          -58 -45 -38 -54 -53 45 -40 58 61 -58 callgsubr
          -61 hvcurveto
          endchar
        </CharString>
        <CharString name="uniFB31">
          -14 0 253 257 -50 callsubr
          hstem
          242 207 175 -15 callgsubr
          950 263 -84 callgsubr
          -640 360 -57 callgsubr
        </CharString>
        <CharString name="uniFB32">
          -211 7 -21 27 -21 29 21 callgsubr
          62 207 133 320 hintmask 00000000
          hintmask 10011010
          90 -35 callsubr
          hintmask 00111010
          -65 callgsubr
          hintmask 01011010
          -293 vlineto
          hintmask 10011010
          -4 25 28 -2 26 hhcurveto
          hintmask 00111110
          75 524 -104 callgsubr
          endchar
        </CharString>
        <CharString name="uniFB33">
          38 21 -72 callgsubr
          hstem
          185 207 171 -29 callsubr
          -812 -691 -104 callgsubr
          endchar
        </CharString>
        <CharString name="uniFB34">
          154 21 -72 callgsubr
          hstem
          141 314 83 207 83 -52 callsubr
          -187 -268 -104 callgsubr
          -500 -510 -30 callgsubr
        </CharString>
        <CharString name="uniFB35">
          -469 21 -72 callgsubr
          hstem
          -84 207 52 -15 callgsubr
          175 hmoveto
          -68 callgsubr
          -156 -439 -104 callgsubr
          endchar
        </CharString>
        <CharString name="uniFB36">
          -328 21 21 callgsubr
          67 691 -207 207 hintmask 11110000
          -28 callgsubr
          hintmask 11101000
          521 -429 -104 callgsubr
          endchar
        </CharString>
        <CharString name="uniFB38">
          181 -24 249 285 185 506 38 callgsubr
          99 207 97 325 hintmask 11011110
          -79 callsubr
          hintmask 11101110
          743 -325 -705 vlineto
          hintmask 11011110
          28 callgsubr
          534 vmoveto
          61 -58 callgsubr
          -61 -58 -45 -38 -54 -53 45 -40 58 hvcurveto
          endchar
        </CharString>
        <CharString name="uniFB39">
          -419 663 185 101 -69 callgsubr
          -52 207 81 -36 callsubr
          236 515 -81 callsubr
          -185 -286 -104 callgsubr
          endchar
        </CharString>
        <CharString name="uniFB3A">
          -58 581 185 183 -69 callgsubr
          199 207 186 -22 callsubr
          -290 -368 -104 callgsubr
          endchar
        </CharString>
        <CharString name="uniFB3B">
          3 -19 250 279 -50 callsubr
          hstem
          254 207 186 -15 callgsubr
          413 -19 -89 callgsubr
          -56 529 -104 callgsubr
          endchar
        </CharString>
        <CharString name="uniFB3C">
          -10 21 -21 564 185 200 -42 callgsubr
          64 325 -200 207 hintmask 11110000
          -45 callgsubr
          hintmask 11101000
          -655 -336 -57 callgsubr
        </CharString>
        <CharString name="uniFB3E">
          236 0 252 258 185 272 265 hstem
          621 207 81 -86 callgsubr
          494 -158 -104 callgsubr
          endchar
        </CharString>
        <CharString name="uniFB40">
          37 callsubr
          530 -50 callsubr
          hstemhm
          31 207 101 325 hintmask 01110100
          -31 callgsubr
          hintmask 10110100
          4 callgsubr
          hintmask 01110100
          -20 91 62 -9 80 hhcurveto
          hintmask 01111100
          -159 530 -104 callgsubr
          endchar
        </CharString>
        <CharString name="uniFB41">
          195 -24 268 266 185 272 3 callsubr
          114 207 112 -93 callsubr
          1 266 -104 callgsubr
          endchar
        </CharString>
        <CharString name="uniFB43">
          10 callgsubr
          63 185 95 -69 callgsubr
          177 315 56 207 52 -82 callsubr
          -478 1085 -104 callgsubr
          endchar
        </CharString>
        <CharString name="uniFB44">
          -40 callsubr
          24 185 75 -42 callgsubr
          590 207 81 325 hintmask 11010100
          615 -27 -98 callsubr
          hintmask 11111100
          78 716 -104 callgsubr
          endchar
        </CharString>
        <CharString name="uniFB46">
          83 0 253 88 185 675 -20 hstemhm
          26 1141 -979 207 hintmask 11110000
          -61 callgsubr
          hintmask 11101000
          -424 -93 -57 callgsubr
        </CharString>
        <CharString name="uniFB47">
          212 21 -72 callgsubr
          hstem
          170 314 83 207 82 -53 callgsubr
          70 263 -104 callgsubr
          -500 -926 -30 callsubr
        </CharString>
        <CharString name="uniFB48">
          -112 21 -72 callgsubr
          hstem
          175 207 180 -36 callsubr
          562 hmoveto
          325 773 hlineto
          269 -176 159 -296 vhcurveto
          -382 -252 358 hlineto
          111 60 -56 -103 hvcurveto
          -284 -280 -104 callgsubr
          endchar
        </CharString>
        <CharString name="uniFB49">
          -13 callsubr
          294 185 506 -20 hstemhm
          13 callsubr
          254 315 26 207 32 315 hintmask 11111010
          476 1201 -83 callgsubr
          -104 callsubr
          hintmask 11111110
          481 123 -104 callgsubr
          endchar
        </CharString>
        <CharString name="uniFB4A">
          196 3 -21 34 -21 26 21 callgsubr
          218 317 61 207 66 326 hintmask 00111111
          717 -66 callsubr
          -616 -252 184 hlineto
          -47 -77 -20 -117 -76 vvcurveto
          -284 vlineto
          -103 -51 -48 -92 -23 -21 1 1 -21 vhcurveto
          hintmask 01011111
          -251 vlineto
          hintmask 10011111
          -8 54 43 -5 58 hhcurveto
          233 137 142 246 hvcurveto
          339 vlineto
          73 11 92 18 75 vhcurveto
          154 hlineto
          100 19 callsubr
          hintmask 00111111
          2 -774 rlineto
          324 -26 callsubr
          -18 -691 -104 callgsubr
          endchar
        </CharString>
        <CharString name="uniFB4B">
          -469 21 -21 -75 callgsubr
          153 185 hstemhm
          175 326 -314 208 hintmask 00000000
          hintmask 11101000
          291 -73 callgsubr
          -66 callgsubr
          hintmask 11110000
          -116 -1354 -2 callgsubr
        </CharString>
        <CharString name="uniFB4C">
          -14 0 253 696 11 callsubr
          624 -15 callgsubr
          807 1531 rmoveto
          -591 -163 591 hlineto
          143 -1105 -84 callgsubr
          endchar
        </CharString>
        <CharString name="uniFB4D">
          3 -19 250 718 11 callsubr
          647 -15 callgsubr
          227 -21 callgsubr
          186 -1550 -89 callgsubr
          endchar
        </CharString>
        <CharString name="uniFB4E">
          -40 callsubr
          284 11 callsubr
          878 -36 callsubr
          364 -21 callgsubr
          251 -1558 -98 callsubr
          endchar
        </CharString>
        <CharString name="uniFB4F">
          143 21 -21 1201 -20 281 -20 hstem
          64 -36 callsubr
          1201 -66 callsubr
          -365 hlineto
          -198 -416 -249 361 rlineto
          316 -325 -372 vlineto
          752 -1090 rlineto
          362 hlineto
          -342 496 rlineto
          endchar
        </CharString>
        <CharString name="v">
          -85 -18 callgsubr
          8 1027 vstem
          708 33 callgsubr
          -186 -704 -186 704 rlineto
          -328 hlineto
          360 -1082 rlineto
          308 hlineto
          359 1082 rlineto
          endchar
        </CharString>
        <CharString name="w">
          366 -18 callgsubr
          25 1443 vstem
          1168 33 callgsubr
          -126 -656 -185 656 rlineto
          -221 hlineto
          -185 -663 -126 663 rlineto
          -300 hlineto
          267 -1082 rlineto
          261 hlineto
          194 651 192 -651 rlineto
          263 hlineto
          266 1082 rlineto
          endchar
        </CharString>
        <CharString name="x">
          -83 -18 callgsubr
          17 1023 vstem
          528 777 rmoveto
          -165 305 rlineto
          -331 hlineto
          296 -528 -311 -554 rlineto
          331 hlineto
          180 326 182 -326 rlineto
          330 hlineto
          -310 554 297 528 rlineto
          -329 hlineto
          endchar
        </CharString>
        <CharString name="y">
          -87 -437 253 -253 1519 hstemhm
          0 1046 hintmask 01100000
          712 1082 -48 callgsubr
          rlineto
          hintmask 10100000
          -85 callgsubr
        </CharString>
        <CharString name="yacute">
          -87 -437 253 1408 -39 callsubr
          0 1046 vstem
          901 14 callsubr
          rmoveto
          -335 hlineto
          -92 callgsubr
          89 -142 -48 callgsubr
          -85 callgsubr
        </CharString>
        <CharString name="ydieresis">
          -87 -437 253 1418 262 hstemhm
          0 1046 hintmask 00000000
          hintmask 11100000
          271 1234 -103 callgsubr
          -62 -152 -48 callgsubr
          -85 callgsubr
        </CharString>
        <CharString name="yen">
          -28 21 -21 268 184 105 185 714 -20 hstem
          386 7 callsubr
          1093 -29 callgsubr
          -24 callsubr
          -206 -540 -208 540 rlineto
          -335 hlineto
          314 -714 rlineto
          -242 -185 304 -105 -304 -184 304 -268 324 268 280 184 -280 105 280 185 -210 hlineto
          endchar
        </CharString>
        <CharString name="yen.smcp">
          -194 21 -21 219 178 67 179 hstem
          309 -46 callsubr
          932 -19 callsubr
          -327 hlineto
          -136 -418 -137 418 rlineto
          -326 hlineto
          216 -522 rlineto
          -179 -179 253 hlineto
          13 -32 rlineto
          -35 -266 -178 266 -219 312 219 267 178 -267 18 vlineto
          20 49 rlineto
          247 179 -172 hlineto
          endchar
        </CharString>
        <CharString name="z">
          -83 0 252 578 -69 callgsubr
          71 907 vstem
          472 252 rmoveto
          493 652 rlineto
          178 -876 -252 473 vlineto
          -491 -646 rlineto
          -184 907 252 vlineto
          endchar
        </CharString>
        <CharString name="zero">
          50 -54 callgsubr
          992 -9 callsubr
          312 375 20 callgsubr
          1089 597 rmoveto
          262 vlineto
          426 -203 191 -296 -297 -202 -191 -426 vhcurveto
          -262 vlineto
          -425 204 -192 297 296 201 192 425 vhcurveto
          -311 305 rmoveto
          -345 vlineto
          -243 -69 -82 -117 -119 -70 82 243 vhcurveto
          345 vlineto
          240 69 82 118 118 70 -82 -240 vhcurveto
          endchar
        </CharString>
        <CharString name="zero.frac">
          653 -69 callsubr
          971 -100 callsubr
        </CharString>
        <CharString name="zero.smcp">
          -61 8 callgsubr
          694 -69 callgsubr
          75 312 296 20 callgsubr
          994 454 rmoveto
          252 vlineto
          320 -190 155 -270 -272 -187 -155 -320 vhcurveto
          -252 vlineto
          -321 189 -149 272 270 188 149 321 vhcurveto
          -311 263 rmoveto
          -272 vlineto
          -162 -57 -48 -90 -93 -56 48 162 vhcurveto
          272 vlineto
          156 55 56 92 92 57 -56 -156 vhcurveto
          endchar
        </CharString>
        <CharString name="zero.sup">
          -11 -69 callsubr
          307 -100 callsubr
        </CharString>
        <CharString name="zero.tnum">
          91 endchar
        </CharString>
      <CharString index="0">
        rmoveto
        61 vlineto
        445 -260 273 -369 -370 -257 -273 -445 vhcurveto
        -61 vlineto
        -445 259 -272 370 369 258 272 445 vhcurveto
        -329 63 rmoveto
        -63 vlineto
        -290 -107 -161 -191 -194 -107 161 290 vhcurveto
        -8 callsubr
        105 156 194 191 109 -156 -293 vhcurveto
        endchar
      </CharString>
      <CharString index="1">
        rmoveto
        42 vlineto
        356 -231 222 -321 -325 -226 -222 -356 33 callsubr
        -356 228 -221 325 321 229 221 356 vhcurveto
        -314 43 rmoveto
        -43 vlineto
        -205 -88 -124 -148 -156 -83 124 205 vhcurveto
        43 vlineto
        209 81 119 156 150 88 -119 -209 vhcurveto
        endchar
      </CharString>
      <CharString index="2">
        rmoveto
        323 -174 207 -310 -327 -186 -240 -319 vhcurveto
        -38 vlineto
        -286 203 -239 344 210 146 96 96 68 vhcurveto
        -147 175 rlineto
        -81 -65 -93 -34 -99 hhcurveto
        -137 -90 80 127 -22 hvcurveto
        679 hlineto
        -306 207 rmoveto
        -372 hlineto
        119 19 55 85 118 hhcurveto
        121 59 -70 -109 hvcurveto
        endchar
      </CharString>
      <CharString index="3">
        rmoveto
        61 -58 callgsubr
        -61 -58 -45 -38 -54 -53 45 -40 58 hvcurveto
        return
      </CharString>
      <CharString index="4">
        rmoveto
        82 63 57 74 74 -63 57 -82 -81 -63 -57 -74 -74 63 -57 81 -8 callgsubr
        81 63 57 74 74 -63 57 -81 -82 -63 -57 -74 -74 63 -57 82 hvcurveto
        return
      </CharString>
      <CharString index="5">
        314 hlineto
        -462 -43 callsubr
        rlineto
        -298 hlineto
        -457 -1165 rlineto
        314 hlineto
        76 210 rlineto
        435 hlineto
        -355 224 rmoveto
        134 371 138 -371 rlineto
        endchar
      </CharString>
      <CharString index="6">
        rmoveto
        -75 -59 -26 -38 -41 hvcurveto
        147 27 117 21 132 hhcurveto
        11 175 -36 hlineto
        -237 -233 -112 -331 hvcurveto
        -51 vlineto
        -231 145 -93 186 182 132 117 158 159 -91 105 -160 vhcurveto
        -69 -367 rmoveto
        -76 -36 34 78 hvcurveto
        40 vlineto
        22 18 38 22 54 hhcurveto
        65 42 -24 -67 -57 -45 -48 -60 hvcurveto
        endchar
      </CharString>
      <CharString index="7">
        -313 280 rlineto
        -180 hlineto
        -308 -277 rlineto
        -16 241 vlineto
        return
      </CharString>
      <CharString index="8">
        rmoveto
        170 -43 rlineto
        12 15 30 25 67 hhcurveto
        77 36 -41 -67 -55 -17 -50 -80 -60 -39 15 48 hvcurveto
        -216 hlineto
        -145 1 154 -91 160 hhcurveto
        213 98 139 139 162 -93 91 -177 -56 -57 -20 -6 -17 hvcurveto
        20 128 rlineto
        335 167 -509 hlineto
        endchar
      </CharString>
      <CharString index="9">
        rmoveto
        -199 312 rlineto
        -334 -79 callgsubr
        return
      </CharString>
      <CharString index="10">
        rmoveto
        -313 -750 hlineto
        -128 -62 -52 -120 -120 -65 52 128 vhcurveto
        750 -313 -750 vlineto
        -278 201 -153 297 301 194 153 278 vhcurveto
        endchar
      </CharString>
      <CharString index="11">
        50 -54 callgsubr
        993 -42 callgsubr
        90 313 -282 313 313 312 -282 313 hintmask 00000000
        hintmask 11000100
        864 751 rmoveto
        hintmask 11011000
        121 65 74 112 140 vvcurveto
        266 -194 143 -275 -272 -197 -143 -266 -140 75 -112 122 -65 vhcurveto
        hintmask 11100100
        -139 -67 -89 -122 -161 vvcurveto
        -278 216 -143 286 286 212 143 278 vhcurveto
        hintmask 11000100
        161 -88 122 -138 67 vhcurveto
        hintmask 11011000
        -274 474 rmoveto
        101 56 -68 -106 -108 -54 -72 -101 -102 -56 72 108 109 56 65 100 hvcurveto
        hintmask 11100100
        2 -993 rmoveto
        -114 -75 73 121 122 75 72 112 112 75 -72 -122 -121 -72 -73 -113 hvcurveto
        endchar
      </CharString>
      <CharString index="12">
        -133 -95 -129 -142 hvcurveto
        177 -10 rlineto
        61 36 30 45 vhcurveto
        return
      </CharString>
      <CharString index="13">
        -78 -86 callsubr
        619 -15 callgsubr
        619 hmoveto
        326 773 hlineto
        269 -177 159 -296 vhcurveto
        -382 -252 358 hlineto
        111 60 -56 -103 hvcurveto
        endchar
      </CharString>
      <CharString index="14">
        rmoveto
        -84 457 -215 hlineto
        -353 -489 13 -142 rlineto
        340 -158 215 158 84 hlineto
        -449 174 rmoveto
        135 175 15 23 rlineto
        -198 vlineto
        endchar
      </CharString>
      <CharString index="15">
        -196 -312 rlineto
        253 hlineto
        return
      </CharString>
      <CharString index="16">
        rmoveto
        -84 callsubr
        hintmask 11010101
        -47 callsubr
        -95 callgsubr
        -21 callsubr
        hintmask 11101010
        -80 callgsubr
        hintmask 11101001
        return
      </CharString>
      <CharString index="17">
        rmoveto
        262 -989 -56 callsubr
        989 261 -664 360 564 253 -564 320 vlineto
        endchar
      </CharString>
      <CharString index="18">
        rmoveto
        339 221 160 395 hvcurveto
        665 -864 -252 538 -469 vlineto
        -164 -83 -84 -195 -1 vhcurveto
        -71 -85 11 22 -101 hvcurveto
        -50 -237 rlineto
        -30 127 118 -16 106 hhcurveto
        return
      </CharString>
      <CharString index="19">
        -38 -20 234 -213 -21 41 -21 485 176 213 228 return
      </CharString>
      <CharString index="20">
        rmoveto
        129 95 89 111 110 -95 93 -129 -130 -94 -93 -110 -111 94 -89 130 hvcurveto
        307 vmoveto
        65 41 -49 -58 -58 -41 -47 -65 -65 -41 47 58 58 41 49 65 hvcurveto
        return
      </CharString>
      <CharString index="21">
        327 vstem
        154 hmoveto
        321 hlineto
        70 711 rlineto
        166 16 61 90 111 hhcurveto
        112 64 -90 -156 hvcurveto
        1 -469 rlineto
        -203 -252 529 677 hlineto
        365 -2 -194 190 -369 hhcurveto
        -188 -227 -38 -57 -153 hvcurveto
        68 -235 48 19 82 24 53 9 rlinecurve
        1 -5 -4 -2 -5 -5 -5 -5 rlinecurve
        -54 -55 -45 -106 -12 -108 rrcurveto
        return
      </CharString>
      <CharString index="22">
        -30 -76 rlineto
        -67 -24 -41 -34 -112 -14 -14 1 -16 hhcurveto
        -234 vlineto
        -15 53 21 -5 60 hhcurveto
        237 76 167 109 38 hvcurveto
        434 1243 rlineto
        endchar
      </CharString>
      <CharString index="23">
        rmoveto
        500 vlineto
        277 -179 161 -305 vhcurveto
        -349 -252 325 hlineto
        122 60 -58 -113 hvcurveto
        -525 -572 -253 1037 243 vlineto
        return
      </CharString>
      <CharString index="24">
        rmoveto
        -314 -1080 hlineto
        -105 219 251 -53 222 hhcurveto
        return
      </CharString>
      <CharString index="25">
        175 -38 43 -32 -57 vvcurveto
        -62 -54 -43 -101 -101 -81 44 104 -4 vhcurveto
        -294 hlineto
        -174 166 -192 307 283 180 142 191 225 -186 77 -227 41 vhcurveto
        -139 26 -52 36 60 vvcurveto
        63 56 44 84 107 44 -52 -82 vhcurveto
        312 hlineto
        return
      </CharString>
      <CharString index="26">
        98 -6 40 -16 -53 vvcurveto
        -56 -42 -22 -59 vhcurveto
        7 -180 rlineto
        237 124 98 147 return
      </CharString>
      <CharString index="27">
        134 95 124 14 callgsubr
        return
      </CharString>
      <CharString index="28">
        hlineto
        279 -312 rlineto
        return
      </CharString>
      <CharString index="29">
        252 -231 -21 870 -42 callgsubr
        return
      </CharString>
      <CharString index="30">
        172 196 171 104 175 hstem
        68 213 217 215 vstem
        462 return
      </CharString>
      <CharString index="31">
        256 21 -21 281 262 913 -20 return
      </CharString>
      <CharString index="32">
        949 252 return
      </CharString>
      <CharString index="33">
        1456 return
      </CharString>
      <CharString index="34">
        1354 rmoveto
        61 43 38 54 54 -43 39 -61 return
      </CharString>
      <CharString index="35">
        -21 510 -50 callsubr
        return
      </CharString>
      <CharString index="36">
        173 171 140 155 173 hstemhm
        45 216 210 214 -200 214 hintmask 11110100
        549 return
      </CharString>
      <CharString index="37">
        161 -238 -160 vlineto
        -129 -41 -87 -46 -77 vhcurveto
        142 -80 rlineto
        97 85 86 154 133 vvcurveto
        return
      </CharString>
      <CharString index="38">
        252 hstem
        return
      </CharString>
      <CharString index="39">
        326 1201 -428 -252 102 hlineto
        return
      </CharString>
      <CharString index="40">
        rmoveto
        -196 hlineto
        -277 -390 rlineto
        -19 vlineto
        277 -390 rlineto
        196 hlineto
        -236 400 rlineto
        return
      </CharString>
      <CharString index="41">
        -59 -32 callgsubr
        59 hvcurveto
        return
      </CharString>
      <CharString index="42">
        72 -300 rlineto
        299 hlineto
        -80 400 rlineto
        -13 63 -7 68 63 vvcurveto
        607 -582 -252 262 -482 vlineto
        -51 -124 -95 -65 -147 -2 rrcurveto
        -30 -33 3 6 -35 hvcurveto
        return
      </CharString>
      <CharString index="43">
        496 -343 rmoveto
        -92 callsubr
        281 hmoveto
        59 44 40 53 54 -44 16 callsubr
        return
      </CharString>
      <CharString index="44">
        -158 -227 158 -855 313 855 return
      </CharString>
      <CharString index="45">
        190 -106 190 hstemhm
        return
      </CharString>
      <CharString index="46">
        1167 -66 callsubr
        -365 hlineto
        -175 -384 -239 384 rlineto
        -362 hlineto
        639 -948 rlineto
        -537 -253 954 146 hlineto
        -263 381 rlineto
        return
      </CharString>
      <CharString index="47">
        1354 rmoveto
        60 44 38 54 54 -44 39 -60 -66 callgsubr
        return
      </CharString>
      <CharString index="48">
        786 -19 vlineto
        -377 -121 rlineto
        -165 vlineto
        183 38 rlineto
        -538 vlineto
        endchar
      </CharString>
      <CharString index="49">
        -58 callsubr
        -55 callsubr
        return
      </CharString>
      <CharString index="50">
        rmoveto
        -55 callsubr
        -61 -58 -45 -38 -54 -53 45 -40 58 61 -58 callsubr
        vhcurveto
        endchar
      </CharString>
      <CharString index="51">
        hstem
        56 314 475 7 callgsubr
        return
      </CharString>
      <CharString index="52">
        413 hlineto
        334 243 235 326 hvcurveto
        42 vlineto
        326 -243 236 -340 vhcurveto
        269 -604 rmoveto
        -213 -68 -97 -195 vhcurveto
        -100 return
      </CharString>
      <CharString index="53">
        -20 252 return
      </CharString>
      <CharString index="54">
        -36 callsubr
        600 hmoveto
        365 13 216 184 337 vvcurveto
        667 -1019 -252 694 -421 vlineto
        -183 -93 -91 -163 -7 vhcurveto
        return
      </CharString>
      <CharString index="55">
        -74 callgsubr
        -324 -56 callsubr
        vlineto
        endchar
      </CharString>
      <CharString index="56">
        rmoveto
        -88 callsubr
        return
      </CharString>
      <CharString index="57">
        177 410 176 return
      </CharString>
      <CharString index="58">
        1082 -313 -1082 vlineto
        endchar
      </CharString>
      <CharString index="59">
        rmoveto
        -190 -643 -188 643 rlineto
        -24 callsubr
        378 -1089 return
      </CharString>
      <CharString index="60">
        73 21 -21 210 224 return
      </CharString>
      <CharString index="61">
        rmoveto
        -286 639 rlineto
        -353 hlineto
        474 -931 rlineto
        -525 329 525 vlineto
        474 931 rlineto
        -352 hlineto
        endchar
      </CharString>
      <CharString index="62">
        1051 -66 callsubr
        -662 335 -325 -587 639 hlineto
        -390 -949 rlineto
        344 hlineto
        394 993 rlineto
        return
      </CharString>
      <CharString index="63">
        -74 callgsubr
        -324 -923 vlineto
        -551 923 rlineto
        -325 -56 callsubr
        325 922 hlineto
        551 -922 rlineto
        endchar
      </CharString>
      <CharString index="64">
        223 -20 261 1215 -20 return
      </CharString>
      <CharString index="65">
        252 hstemhm
        return
      </CharString>
      <CharString index="66">
        313 vstem
        return
      </CharString>
      <CharString index="67">
        169 1 150 1 178 rcurveline
        -290 -208 hlineto
        -100 return
      </CharString>
      <CharString index="68">
        121 325 return
      </CharString>
      <CharString index="69">
        -59 -45 -40 -53 -53 45 -39 59 hvcurveto
        endchar
      </CharString>
      <CharString index="70">
        -54 callgsubr
        618 252 return
      </CharString>
      <CharString index="71">
        262 -42 callsubr
        return
      </CharString>
      <CharString index="72">
        272 109 83 42 70 62 vhcurveto
        -508 313 1498 vlineto
        hintmask 10111000
        -25 callgsubr
        return
      </CharString>
      <CharString index="73">
        hstemhm
        97 312 330 313 hintmask 01111000
        return
      </CharString>
      <CharString index="74">
        -20 173 185 hstemhm
        13 callsubr
        return
      </CharString>
      <CharString index="75">
        -45 -39 -54 -52 45 -40 return
      </CharString>
      <CharString index="76">
        293 -20 rmoveto
        234 137 144 244 hvcurveto
        833 -535 -252 210 -555 vlineto
        return
      </CharString>
      <CharString index="77">
        rmoveto
        314 447 hlineto
        100 8 73 10 50 vhcurveto
        -259 hlineto
        -23 -25 -50 -66 -167 vvcurveto
        endchar
      </CharString>
      <CharString index="78">
        -74 callgsubr
        rmoveto
        return
      </CharString>
      <CharString index="79">
        265 hmoveto
        334 hlineto
        -148 949 rlineto
        289 252 -673 -244 hlineto
        66 -18 rlineto
        return
      </CharString>
      <CharString index="80">
        -1165 313 return
      </CharString>
      <CharString index="81">
        161 -37 50 -40 -69 vvcurveto
        -43 -32 -63 -118 -152 -65 48 118 vhcurveto
        -313 hlineto
        return
      </CharString>
      <CharString index="82">
        -488 -850 rmoveto
        -141 return
      </CharString>
      <CharString index="83">
        20 -54 callgsubr
        -211 -21 return
      </CharString>
      <CharString index="84">
        -147 36 -52 33 61 vvcurveto
        46 48 61 110 111 64 -66 -71 vhcurveto
        312 hlineto
        return
      </CharString>
      <CharString index="85">
        -236 rmoveto
        60 43 38 53 54 -43 39 -60 -59 -45 -39 -54 -53 45 -38 59 hvcurveto
        return
      </CharString>
      <CharString index="86">
        1368 rmoveto
        591 163 -591 hlineto
        return
      </CharString>
      <CharString index="87">
        -523 -80 callsubr
        return
      </CharString>
      <CharString index="88">
        -1131 1354 185 hstem
        return
      </CharString>
      <CharString index="89">
        21 -21 hstem
        return
      </CharString>
      <CharString index="90">
        rmoveto
        104 70 71 93 93 -70 71 -104 -104 -70 -71 -93 -93 70 -71 104 hvcurveto
        return
      </CharString>
      <CharString index="91">
        -21 850 -42 callgsubr
        return
      </CharString>
      <CharString index="92">
        326 vstem
        return
      </CharString>
      <CharString index="93">
        -153 -83 callgsubr
        return
      </CharString>
      <CharString index="94">
        rmoveto
        484 137 -484 hlineto
        endchar
      </CharString>
      <CharString index="95">
        -21 855 227 return
      </CharString>
      <CharString index="96">
        236 rmoveto
        -78 -32 23 87 hvcurveto
        509 181 227 -181 return
      </CharString>
      <CharString index="97">
        -20 251 -230 34 callsubr
        105 312 return
      </CharString>
      <CharString index="98">
        312 hintmask 01111000
        670 34 callgsubr
        return
      </CharString>
      <CharString index="99">
        hvcurveto
        -16 callsubr
        return
      </CharString>
      <CharString index="100">
        262 hstem
        return
      </CharString>
      <CharString index="101">
        rmoveto
        711 1138 -149 78 -711 -1138 rlineto
        return
      </CharString>
      <CharString index="102">
        3 -21 34 -21 26 -21 -75 callgsubr
        hstemhm
        218 317 return
      </CharString>
      <CharString index="103">
        14 callsubr
        hlineto
        hintmask 10011100
        -488 -1304 rmoveto
        -141 return
      </CharString>
      <CharString index="104">
        173 hlineto
        -11 -111 -52 -11 -57 vvcurveto
        -53 45 -40 59 return
      </CharString>
      <CharString index="105">
        rmoveto
        5 callsubr
      </CharString>
      <CharString index="106">
        0 253 696 -69 callgsubr
        return
      </CharString>
      <CharString index="107">
        hstem
        2 1383 vstem
        return
      </CharString>
      <CharString index="108">
        6 callsubr
        -39 callsubr
        return
      </CharString>
      <CharString index="109">
        118 212 118 return
      </CharString>
      <CharString index="110">
        -23 callsubr
        hstem
        return
      </CharString>
      <CharString index="111">
        -103 -43 -48 -90 -49 -49 3 6 -48 vhcurveto
        -243 vlineto
        return
      </CharString>
      <CharString index="112">
        -54 callgsubr
        -231 34 callsubr
        return
      </CharString>
      <CharString index="113">
        -4 -21 -26 -3 -37 hhcurveto
        endchar
      </CharString>
      <CharString index="114">
        314 vstem
        return
      </CharString>
      <CharString index="115">
        -16 251 return
      </CharString>
      <CharString index="116">
        311 hintmask 00111100
        670 34 callgsubr
        -109 -82 return
      </CharString>
      <CharString index="117">
        159 379.18 226.82 return
      </CharString>
      <CharString index="118">
        20 23 callsubr
        return
      </CharString>
      <CharString index="119">
        hintmask 00000000
        hintmask 11110000
        return
      </CharString>
      <CharString index="120">
        hstemhm
        58 312 return
      </CharString>
      <CharString index="121">
        147 hvcurveto
        return
      </CharString>
      <CharString index="122">
        1 204 rlineto
        -248 -203 hlineto
        -137 return
      </CharString>
      <CharString index="123">
        -312 hlineto
        -120 -2 -76 -50 -132 hhcurveto
        return
      </CharString>
      <CharString index="124">
        844 rcurveline
        -327 hlineto
        184 -811 15 return
      </CharString>
      <CharString index="125">
        94 hlineto
        202 67 -103 -205 hvcurveto
        endchar
      </CharString>
      <CharString index="126">
        -75 callgsubr
        hstem
        return
      </CharString>
      <CharString index="127">
        311 vstem
        return
      </CharString>
      <CharString index="128">
        -72 callgsubr
        hstemhm
        return
      </CharString>
      <CharString index="129">
        60 -58 callsubr
        57 -51 11 -12 111 return
      </CharString>
      <CharString index="130">
        -94 -46 -82 vhcurveto
        151 -80 rlineto
        97 89 return
      </CharString>
      <CharString index="131">
        hstem
        112 -46 callsubr
        return
      </CharString>
      <CharString index="132">
        313 367 return
      </CharString>
      <CharString index="133">
        -318 137 return
      </CharString>
      <CharString index="134">
        -63 -57 -74 hvcurveto
        hintmask 11010000
        -74 63 -57 return
      </CharString>
      <CharString index="135">
        -311 211 -209 316 vhcurveto
        return
      </CharString>
      <CharString index="136">
        223 -143 102 -299 64 vhcurveto
        return
      </CharString>
      <CharString index="137">
        -215 128 -83 301 -71 vhcurveto
        return
      </CharString>
      <CharString index="138">
        1 callsubr
        91 185 return
      </CharString>
      <CharString index="139">
        hstem
        79 -37 callsubr
        return
      </CharString>
      <CharString index="140">
        1082 rmoveto
        return
      </CharString>
      <CharString index="141">
        1102 rmoveto
        return
      </CharString>
      <CharString index="142">
        hlineto
        325 -948 rmoveto
        696 return
      </CharString>
      <CharString index="143">
        -36 callgsubr
        vstem
        return
      </CharString>
      <CharString index="144">
        14 callsubr
        rmoveto
        -550 vlineto
        73 return
      </CharString>
      <CharString index="145">
        -20 34 -20 hstemhm
        162 325 return
      </CharString>
      <CharString index="146">
        -1131 1178 202 hstem
        return
      </CharString>
      <CharString index="147">
        207 hintmask 00000000
        return
      </CharString>
</ttFont>
